<svg version="1.1" id="Layer_1" xmlns="http://www.w3.org/2000/svg" xmlns:xlink="http://www.w3.org/1999/xlink" x="0px" y="0px"
	 viewBox="0 0 259.4 40.6" enable-background="new 0 0 259.4 40.6" xml:space="preserve">
<path fill="#231F20" d="M60.2,2.8h13.5v3.5h-9.6v3.6h8.4v3.5h-8.4v3.7h9.7v3.5H60.2V2.8z"/>
<path fill="#231F20" d="M77.3,2.8h3.9V17h8.9v3.6H77.3V2.8z"/>
<path fill="#231F20" d="M100.7,2.8h13.6v3.6h-9.7v3.8h8.5v3.6h-8.5v6.9h-3.9V2.8z"/>
<path fill="#231F20" d="M117.4,2.8h8.2c2.3,0,4,0.6,5.2,1.8c1,1,1.5,2.4,1.5,4.1v0.1c0,2.9-1.6,4.7-3.8,5.5l4.4,6.4h-4.6l-3.8-5.7
	h-3.1v5.7h-3.9V2.8z M125.3,11.4c1.9,0,3-1,3-2.5V8.8c0-1.7-1.2-2.5-3.1-2.5h-3.9v5.1H125.3z"/>
<path display="none" fill="#231F20" d="M135.2,11.7L135.2,11.7c0-5.1,4-9.3,9.5-9.3c5.5,0,9.5,4.1,9.5,9.2v0.1c0,5.1-4,9.2-9.5,9.2
	C139.2,20.9,135.2,16.8,135.2,11.7z M150.1,11.7L150.1,11.7c0-3.1-2.2-5.7-5.4-5.7s-5.4,2.5-5.4,5.6v0.1c0,3.1,2.2,5.6,5.4,5.6
	S150.1,14.8,150.1,11.7z"/>
<g>
	<g>
		<path fill="#231F20" d="M153.8,12.7c-0.2-0.1-0.2-0.3,0-0.4l0.6-0.2c0.2-0.1,0.2-0.2,0-0.3l-0.6-0.3c-0.2-0.1-0.2-0.3,0-0.4
			l0.5-0.3c0.2-0.1,0.2-0.2,0-0.3l-0.6-0.2c-0.2-0.1-0.2-0.2-0.1-0.4l0.5-0.4c0.2-0.1,0.1-0.3-0.1-0.3l-0.6-0.1
			c-0.2,0-0.3-0.2-0.1-0.3l0.4-0.4c0.2-0.1,0.1-0.3-0.1-0.3l-0.6,0c-0.2,0-0.3-0.2-0.1-0.3l0.4-0.5c0.1-0.2,0.1-0.3-0.1-0.3l-0.6,0
			c-0.2,0-0.3-0.1-0.2-0.3l0.3-0.5c0.1-0.2,0-0.3-0.2-0.3l-0.6,0.1c-0.2,0-0.3-0.1-0.2-0.3l0.2-0.5c0.1-0.2,0-0.3-0.2-0.2L151,5.3
			c-0.2,0.1-0.3,0-0.3-0.3l0.1-0.5c0.1-0.2-0.1-0.3-0.3-0.2l-0.6,0.3c-0.2,0.1-0.3,0-0.3-0.2l0.1-0.6c0-0.2-0.1-0.3-0.3-0.2
			l-0.5,0.3c-0.2,0.1-0.3,0-0.3-0.2l0-0.6c0-0.2-0.1-0.3-0.3-0.1L148,3.5c-0.2,0.1-0.3,0.1-0.4-0.1l-0.1-0.6c0-0.2-0.2-0.3-0.3-0.1
			l-0.4,0.4c-0.1,0.2-0.3,0.1-0.4-0.1l-0.2-0.5c-0.1-0.2-0.2-0.2-0.3,0l-0.3,0.5c-0.1,0.2-0.3,0.2-0.4,0l-0.2-0.5
			c-0.1-0.2-0.2-0.2-0.3,0l-0.3,0.5c-0.1,0.2-0.3,0.2-0.4,0l-0.3-0.5c-0.1-0.2-0.3-0.2-0.3,0L143.1,3c-0.1,0.2-0.2,0.2-0.4,0.1
			l-0.4-0.4c-0.1-0.2-0.3-0.1-0.3,0.1l-0.1,0.6c0,0.2-0.2,0.3-0.4,0.1L141.1,3c-0.2-0.1-0.3-0.1-0.3,0.1l0,0.6
			c0,0.2-0.2,0.3-0.3,0.2l-0.5-0.3c-0.2-0.1-0.3,0-0.3,0.2l0.1,0.6c0,0.2-0.1,0.3-0.3,0.2l-0.6-0.3c-0.2-0.1-0.3,0-0.3,0.2l0.1,0.5
			c0.1,0.2-0.1,0.3-0.3,0.3L137.8,5c-0.2-0.1-0.3,0-0.2,0.2l0.2,0.5c0.1,0.2,0,0.3-0.2,0.3L137,5.9c-0.2,0-0.3,0.1-0.2,0.3l0.3,0.5
			c0.1,0.2,0,0.3-0.2,0.3l-0.6,0c-0.2,0-0.3,0.1-0.2,0.3l0.4,0.5c0.1,0.2,0.1,0.3-0.2,0.3l-0.6,0c-0.2,0-0.3,0.1-0.1,0.3l0.4,0.4
			c0.2,0.2,0.1,0.3-0.1,0.3l-0.6,0.1c-0.2,0-0.2,0.2-0.1,0.3l0.5,0.4c0.2,0.1,0.1,0.3-0.1,0.4l-0.6,0.2c-0.2,0.1-0.2,0.2,0,0.3
			l0.5,0.3c0.2,0.1,0.2,0.3,0,0.4l-0.6,0.3c-0.2,0.1-0.2,0.2,0,0.3l0.6,0.2c0.2,0.1,0.2,0.2,0,0.4l-0.5,0.3c-0.2,0.1-0.2,0.3,0,0.3
			l0.6,0.2c0.2,0.1,0.2,0.2,0.1,0.4l-0.5,0.4c-0.2,0.1-0.1,0.3,0.1,0.3l0.6,0.1c0.2,0,0.3,0.2,0.1,0.3l-0.4,0.4
			c-0.1,0.2-0.1,0.3,0.1,0.3l0.6,0c0.2,0,0.3,0.1,0.2,0.3l-0.3,0.5c-0.1,0.2,0,0.3,0.2,0.3l0.6-0.1c0.2,0,0.3,0.1,0.2,0.3l-0.3,0.5
			c-0.1,0.2,0,0.3,0.2,0.3l0.6-0.2c0.2-0.1,0.3,0.1,0.3,0.3l-0.2,0.5c-0.1,0.2,0,0.3,0.2,0.2l0.6-0.2c0.2-0.1,0.3,0,0.3,0.2
			l-0.1,0.6c0,0.2,0.1,0.3,0.3,0.2l0.5-0.3c0.2-0.1,0.3,0,0.3,0.2l0,0.6c0,0.2,0.1,0.3,0.3,0.2l0.5-0.4c0.2-0.1,0.3-0.1,0.3,0.2
			l0.1,0.6c0,0.2,0.2,0.3,0.3,0.1L142,20c0.2-0.1,0.3-0.1,0.4,0.1l0.1,0.5c0.1,0.2,0.2,0.2,0.3,0.1l0.4-0.5c0.1-0.2,0.3-0.1,0.4,0.1
			l0.2,0.5c0.1,0.2,0.2,0.2,0.3,0l0.3-0.5c0.1-0.2,0.3-0.2,0.4,0l0.3,0.5c0.1,0.2,0.3,0.2,0.3,0l0.2-0.5c0.1-0.2,0.3-0.2,0.4-0.1
			l0.4,0.5c0.1,0.2,0.3,0.1,0.3-0.1l0.1-0.5c0.1-0.2,0.2-0.3,0.4-0.1l0.4,0.4c0.2,0.2,0.3,0.1,0.3-0.1l0.1-0.6
			c0-0.2,0.2-0.3,0.4-0.2l0.5,0.4c0.2,0.1,0.3,0.1,0.3-0.2l0-0.6c0-0.2,0.1-0.3,0.3-0.2l0.5,0.3c0.2,0.1,0.3,0,0.3-0.2l-0.1-0.6
			c0-0.2,0.1-0.3,0.3-0.2l0.6,0.2c0.2,0.1,0.3,0,0.2-0.2l-0.2-0.5c-0.1-0.2,0.1-0.3,0.3-0.3l0.6,0.2c0.2,0.1,0.3-0.1,0.2-0.2
			l-0.2-0.5c-0.1-0.2,0-0.3,0.2-0.3l0.6,0.1c0.2,0,0.3-0.1,0.2-0.3l-0.3-0.5c-0.1-0.2,0-0.3,0.2-0.3l0.6,0c0.2,0,0.3-0.1,0.1-0.3
			l-0.4-0.4c-0.1-0.2-0.1-0.3,0.1-0.3l0.6-0.1c0.2,0,0.3-0.2,0.1-0.3l-0.5-0.4c-0.2-0.1-0.1-0.3,0.1-0.3l0.6-0.2
			c0.2-0.1,0.2-0.2,0.1-0.3L153.8,12.7z"/>
	</g>
	<path fill="#FFFFFF" d="M150.1,11.7L150.1,11.7c0-3.1-2.2-5.7-5.4-5.7s-5.4,2.5-5.4,5.6v0.1c0,3.1,2.2,5.6,5.4,5.6
		S150.1,14.8,150.1,11.7z"/>
</g>
<g>
	<g>
		<path fill="#231F20" d="M215.5,12.7c-0.2-0.1-0.2-0.3,0-0.4l0.6-0.2c0.2-0.1,0.2-0.2,0-0.3l-0.6-0.3c-0.2-0.1-0.2-0.3,0-0.4
			l0.5-0.3c0.2-0.1,0.2-0.2,0-0.3l-0.6-0.2c-0.2-0.1-0.2-0.2-0.1-0.4l0.5-0.4c0.2-0.1,0.1-0.3-0.1-0.3l-0.6-0.1
			c-0.2,0-0.3-0.2-0.1-0.3l0.4-0.4c0.2-0.1,0.1-0.3-0.1-0.3l-0.6,0c-0.2,0-0.3-0.2-0.1-0.3l0.4-0.5c0.1-0.2,0.1-0.3-0.1-0.3l-0.6,0
			c-0.2,0-0.3-0.1-0.2-0.3l0.3-0.5c0.1-0.2,0-0.3-0.2-0.3l-0.6,0.1c-0.2,0-0.3-0.1-0.2-0.3l0.2-0.5c0.1-0.2,0-0.3-0.2-0.2l-0.6,0.2
			c-0.2,0.1-0.3,0-0.3-0.3l0.1-0.5c0.1-0.2-0.1-0.3-0.3-0.2l-0.6,0.3c-0.2,0.1-0.3,0-0.3-0.2l0.1-0.6c0-0.2-0.1-0.3-0.3-0.2
			l-0.5,0.3c-0.2,0.1-0.3,0-0.3-0.2l0-0.6c0-0.2-0.1-0.3-0.3-0.1l-0.5,0.4c-0.2,0.1-0.3,0.1-0.4-0.1l-0.1-0.6c0-0.2-0.2-0.3-0.3-0.1
			l-0.4,0.4c-0.1,0.2-0.3,0.1-0.4-0.1l-0.2-0.5c-0.1-0.2-0.2-0.2-0.3,0l-0.3,0.5c-0.1,0.2-0.3,0.2-0.4,0l-0.2-0.5
			c-0.1-0.2-0.2-0.2-0.3,0L206,2.9c-0.1,0.2-0.3,0.2-0.4,0l-0.3-0.5c-0.1-0.2-0.3-0.2-0.3,0L204.8,3c-0.1,0.2-0.2,0.2-0.4,0.1
			L204,2.6c-0.1-0.2-0.3-0.1-0.3,0.1l-0.1,0.6c0,0.2-0.2,0.3-0.4,0.1L202.8,3c-0.2-0.1-0.3-0.1-0.3,0.1l0,0.6c0,0.2-0.2,0.3-0.3,0.2
			l-0.5-0.3c-0.2-0.1-0.3,0-0.3,0.2l0.1,0.6c0,0.2-0.1,0.3-0.3,0.2l-0.6-0.3c-0.2-0.1-0.3,0-0.3,0.2l0.1,0.5
			c0.1,0.2-0.1,0.3-0.3,0.3L199.5,5c-0.2-0.1-0.3,0-0.2,0.2l0.2,0.5c0.1,0.2,0,0.3-0.2,0.3l-0.6-0.1c-0.2,0-0.3,0.1-0.2,0.3l0.3,0.5
			c0.1,0.2,0,0.3-0.2,0.3l-0.6,0c-0.2,0-0.3,0.1-0.2,0.3l0.4,0.5c0.1,0.2,0.1,0.3-0.2,0.3l-0.6,0c-0.2,0-0.3,0.1-0.1,0.3l0.4,0.4
			c0.2,0.2,0.1,0.3-0.1,0.3l-0.6,0.1c-0.2,0-0.2,0.2-0.1,0.3l0.5,0.4c0.2,0.1,0.1,0.3-0.1,0.4l-0.6,0.2c-0.2,0.1-0.2,0.2,0,0.3
			l0.5,0.3c0.2,0.1,0.2,0.3,0,0.4l-0.6,0.3c-0.2,0.1-0.2,0.2,0,0.3l0.6,0.2c0.2,0.1,0.2,0.2,0,0.4l-0.5,0.3c-0.2,0.1-0.2,0.3,0,0.3
			l0.6,0.2c0.2,0.1,0.2,0.2,0.1,0.4l-0.5,0.4c-0.2,0.1-0.1,0.3,0.1,0.3l0.6,0.1c0.2,0,0.3,0.2,0.1,0.3l-0.4,0.4
			c-0.1,0.2-0.1,0.3,0.1,0.3l0.6,0c0.2,0,0.3,0.1,0.2,0.3l-0.3,0.5c-0.1,0.2,0,0.3,0.2,0.3l0.6-0.1c0.2,0,0.3,0.1,0.2,0.3l-0.3,0.5
			c-0.1,0.2,0,0.3,0.2,0.3l0.6-0.2c0.2-0.1,0.3,0.1,0.3,0.3l-0.2,0.5c-0.1,0.2,0,0.3,0.2,0.2l0.6-0.2c0.2-0.1,0.3,0,0.3,0.2
			l-0.1,0.6c0,0.2,0.1,0.3,0.3,0.2l0.5-0.3c0.2-0.1,0.3,0,0.3,0.2l0,0.6c0,0.2,0.1,0.3,0.3,0.2l0.5-0.4c0.2-0.1,0.3-0.1,0.3,0.2
			l0.1,0.6c0,0.2,0.2,0.3,0.3,0.1l0.4-0.4c0.2-0.1,0.3-0.1,0.4,0.1l0.1,0.5c0.1,0.2,0.2,0.2,0.3,0.1l0.4-0.5
			c0.1-0.2,0.3-0.1,0.4,0.1l0.2,0.5c0.1,0.2,0.2,0.2,0.3,0l0.3-0.5c0.1-0.2,0.3-0.2,0.4,0l0.3,0.5c0.1,0.2,0.3,0.2,0.3,0l0.2-0.5
			c0.1-0.2,0.3-0.2,0.4-0.1l0.4,0.5c0.1,0.2,0.3,0.1,0.3-0.1l0.1-0.5c0.1-0.2,0.2-0.3,0.4-0.1l0.4,0.4c0.2,0.2,0.3,0.1,0.3-0.1
			l0.1-0.6c0-0.2,0.2-0.3,0.4-0.2l0.5,0.4c0.2,0.1,0.3,0.1,0.3-0.2l0-0.6c0-0.2,0.1-0.3,0.3-0.2l0.5,0.3c0.2,0.1,0.3,0,0.3-0.2
			l-0.1-0.6c0-0.2,0.1-0.3,0.3-0.2l0.6,0.2c0.2,0.1,0.3,0,0.2-0.2l-0.2-0.5c-0.1-0.2,0.1-0.3,0.3-0.3l0.6,0.2
			c0.2,0.1,0.3-0.1,0.2-0.2l-0.2-0.5c-0.1-0.2,0-0.3,0.2-0.3l0.6,0.1c0.2,0,0.3-0.1,0.2-0.3l-0.3-0.5c-0.1-0.2,0-0.3,0.2-0.3l0.6,0
			c0.2,0,0.3-0.1,0.1-0.3l-0.4-0.4c-0.1-0.2-0.1-0.3,0.1-0.3l0.6-0.1c0.2,0,0.3-0.2,0.1-0.3l-0.5-0.4c-0.2-0.1-0.1-0.3,0.1-0.3
			l0.6-0.2c0.2-0.1,0.2-0.2,0.1-0.3L215.5,12.7z"/>
	</g>
	<path fill="#FFFFFF" d="M211.7,11.7L211.7,11.7c0-3.1-2.2-5.7-5.4-5.7s-5.4,2.5-5.4,5.6v0.1c0,3.1,2.2,5.6,5.4,5.6
		C209.6,17.3,211.7,14.8,211.7,11.7z"/>
</g>
<g>
	<g>
		<path fill="#231F20" d="M253.1,12.7c-0.2-0.1-0.2-0.3,0-0.4l0.6-0.2c0.2-0.1,0.2-0.2,0-0.3l-0.6-0.3c-0.2-0.1-0.2-0.3,0-0.4
			l0.5-0.3c0.2-0.1,0.2-0.2,0-0.3l-0.6-0.2c-0.2-0.1-0.2-0.2-0.1-0.4l0.5-0.4c0.2-0.1,0.1-0.3-0.1-0.3l-0.6-0.1
			c-0.2,0-0.3-0.2-0.1-0.3l0.4-0.4c0.2-0.1,0.1-0.3-0.1-0.3l-0.6,0c-0.2,0-0.3-0.2-0.1-0.3l0.4-0.5c0.1-0.2,0.1-0.3-0.1-0.3l-0.6,0
			c-0.2,0-0.3-0.1-0.2-0.3l0.3-0.5c0.1-0.2,0-0.3-0.2-0.3l-0.6,0.1c-0.2,0-0.3-0.1-0.2-0.3l0.2-0.5c0.1-0.2,0-0.3-0.2-0.2l-0.6,0.2
			c-0.2,0.1-0.3,0-0.3-0.3l0.1-0.5c0.1-0.2-0.1-0.3-0.3-0.2l-0.6,0.3c-0.2,0.1-0.3,0-0.3-0.2l0.1-0.6c0-0.2-0.1-0.3-0.3-0.2
			l-0.5,0.3c-0.2,0.1-0.3,0-0.3-0.2l0-0.6c0-0.2-0.1-0.3-0.3-0.1l-0.5,0.4c-0.2,0.1-0.3,0.1-0.4-0.1l-0.1-0.6c0-0.2-0.2-0.3-0.3-0.1
			l-0.4,0.4c-0.1,0.2-0.3,0.1-0.4-0.1l-0.2-0.5c-0.1-0.2-0.2-0.2-0.3,0l-0.3,0.5c-0.1,0.2-0.3,0.2-0.4,0l-0.2-0.5
			c-0.1-0.2-0.2-0.2-0.3,0l-0.3,0.5c-0.1,0.2-0.3,0.2-0.4,0l-0.3-0.5c-0.1-0.2-0.3-0.2-0.3,0L242.4,3c-0.1,0.2-0.2,0.2-0.4,0.1
			l-0.4-0.4c-0.1-0.2-0.3-0.1-0.3,0.1l-0.1,0.6c0,0.2-0.2,0.3-0.4,0.1L240.4,3c-0.2-0.1-0.3-0.1-0.3,0.1l0,0.6
			c0,0.2-0.2,0.3-0.3,0.2l-0.5-0.3c-0.2-0.1-0.3,0-0.3,0.2l0.1,0.6c0,0.2-0.1,0.3-0.3,0.2l-0.6-0.3c-0.2-0.1-0.3,0-0.3,0.2L238,5
			c0.1,0.2-0.1,0.3-0.3,0.3L237.1,5c-0.2-0.1-0.3,0-0.2,0.2l0.2,0.5c0.1,0.2,0,0.3-0.2,0.3l-0.6-0.1c-0.2,0-0.3,0.1-0.2,0.3l0.3,0.5
			c0.1,0.2,0,0.3-0.2,0.3l-0.6,0c-0.2,0-0.3,0.1-0.2,0.3l0.4,0.5c0.1,0.2,0.1,0.3-0.2,0.3l-0.6,0c-0.2,0-0.3,0.1-0.1,0.3l0.4,0.4
			c0.2,0.2,0.1,0.3-0.1,0.3l-0.6,0.1c-0.2,0-0.2,0.2-0.1,0.3l0.5,0.4c0.2,0.1,0.1,0.3-0.1,0.4l-0.6,0.2c-0.2,0.1-0.2,0.2,0,0.3
			l0.5,0.3c0.2,0.1,0.2,0.3,0,0.4l-0.6,0.3c-0.2,0.1-0.2,0.2,0,0.3l0.6,0.2c0.2,0.1,0.2,0.2,0,0.4l-0.5,0.3c-0.2,0.1-0.2,0.3,0,0.3
			l0.6,0.2c0.2,0.1,0.2,0.2,0.1,0.4l-0.5,0.4c-0.2,0.1-0.1,0.3,0.1,0.3l0.6,0.1c0.2,0,0.3,0.2,0.1,0.3l-0.4,0.4
			c-0.1,0.2-0.1,0.3,0.1,0.3l0.6,0c0.2,0,0.3,0.1,0.2,0.3l-0.3,0.5c-0.1,0.2,0,0.3,0.2,0.3l0.6-0.1c0.2,0,0.3,0.1,0.2,0.3l-0.3,0.5
			c-0.1,0.2,0,0.3,0.2,0.3l0.6-0.2c0.2-0.1,0.3,0.1,0.3,0.3l-0.2,0.5c-0.1,0.2,0,0.3,0.2,0.2l0.6-0.2c0.2-0.1,0.3,0,0.3,0.2
			l-0.1,0.6c0,0.2,0.1,0.3,0.3,0.2l0.5-0.3c0.2-0.1,0.3,0,0.3,0.2l0,0.6c0,0.2,0.1,0.3,0.3,0.2l0.5-0.4c0.2-0.1,0.3-0.1,0.3,0.2
			l0.1,0.6c0,0.2,0.2,0.3,0.3,0.1l0.4-0.4c0.2-0.1,0.3-0.1,0.4,0.1l0.1,0.5c0.1,0.2,0.2,0.2,0.3,0.1l0.4-0.5
			c0.1-0.2,0.3-0.1,0.4,0.1l0.2,0.5c0.1,0.2,0.2,0.2,0.3,0l0.3-0.5c0.1-0.2,0.3-0.2,0.4,0l0.3,0.5c0.1,0.2,0.3,0.2,0.3,0l0.2-0.5
			c0.1-0.2,0.3-0.2,0.4-0.1l0.4,0.5c0.1,0.2,0.3,0.1,0.3-0.1l0.1-0.5c0.1-0.2,0.2-0.3,0.4-0.1l0.4,0.4c0.2,0.2,0.3,0.1,0.3-0.1
			l0.1-0.6c0-0.2,0.2-0.3,0.4-0.2l0.5,0.4c0.2,0.1,0.3,0.1,0.3-0.2l0-0.6c0-0.2,0.1-0.3,0.3-0.2l0.5,0.3c0.2,0.1,0.3,0,0.3-0.2
			l-0.1-0.6c0-0.2,0.1-0.3,0.3-0.2l0.6,0.2c0.2,0.1,0.3,0,0.2-0.2l-0.2-0.5c-0.1-0.2,0.1-0.3,0.3-0.3l0.6,0.2
			c0.2,0.1,0.3-0.1,0.2-0.2l-0.2-0.5c-0.1-0.2,0-0.3,0.2-0.3l0.6,0.1c0.2,0,0.3-0.1,0.2-0.3l-0.3-0.5c-0.1-0.2,0-0.3,0.2-0.3l0.6,0
			c0.2,0,0.3-0.1,0.1-0.3l-0.4-0.4c-0.1-0.2-0.1-0.3,0.1-0.3l0.6-0.1c0.2,0,0.3-0.2,0.1-0.3l-0.5-0.4c-0.2-0.1-0.1-0.3,0.1-0.3
			l0.6-0.2c0.2-0.1,0.2-0.2,0.1-0.3L253.1,12.7z"/>
	</g>
	<path fill="#FFFFFF" d="M249.4,11.7L249.4,11.7c0-3.1-2.2-5.7-5.4-5.7s-5.4,2.5-5.4,5.6v0.1c0,3.1,2.2,5.6,5.4,5.6
		C247.2,17.3,249.4,14.8,249.4,11.7z"/>
</g>
<path fill="#231F20" d="M157.5,2.8h3.6l8.4,11v-11h3.9v17.8H170l-8.6-11.3v11.3h-3.9V2.8z"/>
<path fill="#231F20" d="M177.6,2.8h7c5.6,0,9.5,3.8,9.5,8.9v0.1c0,5-3.9,8.9-9.5,8.9h-7V2.8z M181.6,6.3v10.8h3
	c3.2,0,5.4-2.2,5.4-5.3v-0.1c0-3.2-2.2-5.4-5.4-5.4H181.6z"/>
<path fill="#231F20" d="M217.9,18l2.3-2.8c1.6,1.3,3.3,2.2,5.3,2.2c1.6,0,2.6-0.6,2.6-1.7v-0.1c0-1-0.6-1.5-3.6-2.3
	c-3.6-0.9-5.9-1.9-5.9-5.5V7.9c0-3.2,2.6-5.4,6.2-5.4c2.6,0,4.8,0.8,6.6,2.3l-2,3c-1.6-1.1-3.1-1.8-4.6-1.8s-2.3,0.7-2.3,1.6v0.1
	c0,1.2,0.8,1.6,3.8,2.3c3.6,0.9,5.7,2.2,5.7,5.4v0.1c0,3.5-2.7,5.5-6.6,5.5C222.7,20.9,220,19.9,217.9,18z"/>
<path fill="#58595B" d="M60.3,25.9h5.1c1.4,0,2.5,0.4,3.2,1.1c0.5,0.5,0.8,1.2,0.8,1.9v0c0,1.7-1.1,2.5-2.1,2.9
	c1.5,0.4,2.8,1.2,2.8,3v0c0,2.1-1.8,3.4-4.4,3.4h-5.4V25.9z M68.5,29c0-1.4-1.1-2.3-3.1-2.3h-4.2v4.9h4.1
	C67.2,31.6,68.5,30.7,68.5,29L68.5,29z M65.4,32.5h-4.2v5h4.5c2.1,0,3.5-1,3.5-2.5v0C69.2,33.4,67.9,32.5,65.4,32.5z"/>
<path fill="#58595B" d="M73,25.9h0.9v12.4H73V25.9z"/>
<path fill="#58595B" d="M77,32.1L77,32.1c0-3.5,2.6-6.4,6.2-6.4c2.2,0,3.5,0.8,4.8,2l-0.7,0.7c-1.1-1-2.3-1.8-4.2-1.8
	c-3,0-5.2,2.4-5.2,5.5v0c0,3.1,2.3,5.6,5.2,5.6c1.8,0,3-0.7,4.3-1.9l0.6,0.6c-1.3,1.3-2.7,2.2-4.9,2.2C79.6,38.5,77,35.7,77,32.1z"
	/>
<path fill="#58595B" d="M94.2,33.4l-5.3-7.5h1.2l4.6,6.7l4.7-6.7h1.1l-5.3,7.5v4.9h-0.9V33.4z"/>
<path fill="#58595B" d="M101,32.1L101,32.1c0-3.5,2.6-6.4,6.2-6.4c2.2,0,3.5,0.8,4.8,2l-0.7,0.7c-1.1-1-2.3-1.8-4.2-1.8
	c-3,0-5.2,2.4-5.2,5.5v0c0,3.1,2.3,5.6,5.2,5.6c1.8,0,3-0.7,4.3-1.9l0.6,0.6c-1.3,1.3-2.7,2.2-4.9,2.2C103.7,38.5,101,35.7,101,32.1
	z"/>
<path fill="#58595B" d="M114.4,25.9h0.9v11.5h7.3v0.8h-8.2V25.9z"/>
<path fill="#58595B" d="M125.2,25.9h8.8v0.8h-7.9v4.9h7.1v0.8h-7.1v5h8v0.8h-8.9V25.9z"/>
<path fill="#58595B" d="M146.1,25.9h1l3.9,11l3.6-11.1h0.7l3.6,11.1l3.9-11h1l-4.5,12.5h-0.7l-3.6-10.8l-3.6,10.8h-0.7L146.1,25.9z"
	/>
<path fill="#58595B" d="M165.1,32.1L165.1,32.1c0-3.4,2.5-6.4,6.2-6.4s6.2,3,6.2,6.4v0c0,3.4-2.5,6.4-6.2,6.4
	C167.6,38.5,165.1,35.5,165.1,32.1z M176.6,32.1L176.6,32.1c0-3.1-2.2-5.6-5.3-5.6c-3.1,0-5.3,2.5-5.3,5.5v0c0,3.1,2.2,5.6,5.3,5.6
	S176.6,35.2,176.6,32.1z"/>
<path fill="#58595B" d="M180.5,25.9h5.2c1.5,0,2.7,0.5,3.5,1.2c0.6,0.6,0.9,1.4,0.9,2.3v0c0,2.1-1.5,3.3-3.6,3.5l4.1,5.3h-1.2
	l-3.9-5.1h-4.1v5.1h-0.9V25.9z M185.6,32.3c2.1,0,3.6-1,3.6-2.8v0c0-1.7-1.3-2.7-3.6-2.7h-4.2v5.6H185.6z"/>
<path fill="#58595B" d="M193.1,25.9h0.9V34l7.9-8.1h1.3l-5.4,5.5l5.6,6.9h-1.2l-5.1-6.3l-3.1,3.1v3.2h-0.9V25.9z"/>
<path fill="#58595B" d="M204.6,36.5l0.6-0.7c1.4,1.3,2.6,1.8,4.4,1.8c1.9,0,3.1-1,3.1-2.5v0c0-1.3-0.7-2.1-3.5-2.6
	c-3-0.6-4.2-1.6-4.2-3.5v0c0-1.8,1.7-3.3,4-3.3c1.8,0,3,0.5,4.2,1.5l-0.6,0.7c-1.2-1-2.3-1.4-3.7-1.4c-1.8,0-3,1-3,2.3v0
	c0,1.3,0.7,2.1,3.6,2.7c2.9,0.6,4.1,1.6,4.1,3.4v0c0,2-1.7,3.4-4.1,3.4C207.6,38.5,206.1,37.8,204.6,36.5z"/>
<path fill="#58595B" d="M216.5,25.9h0.9v5.7h7.9v-5.7h0.9v12.4h-0.9v-5.8h-7.9v5.8h-0.9V25.9z"/>
<path fill="#58595B" d="M229.2,32.1L229.2,32.1c0-3.4,2.5-6.4,6.2-6.4c3.8,0,6.2,3,6.2,6.4v0c0,3.4-2.5,6.4-6.2,6.4
	C231.6,38.5,229.2,35.5,229.2,32.1z M240.7,32.1L240.7,32.1c0-3.1-2.2-5.6-5.3-5.6c-3.1,0-5.3,2.5-5.3,5.5v0c0,3.1,2.2,5.6,5.3,5.6
	C238.5,37.7,240.7,35.2,240.7,32.1z"/>
<path fill="#58595B" d="M244.5,25.9h4.5c2.7,0,4.6,1.4,4.6,3.8v0c0,2.6-2.2,3.9-4.8,3.9h-3.3v4.6h-0.9V25.9z M248.9,32.8
	c2.3,0,3.9-1.2,3.9-3v0c0-2-1.5-3-3.8-3h-3.5v6.1H248.9z"/>
<g>
	<g>
		<circle fill="none" stroke="#231F20" stroke-width="2.4349" stroke-miterlimit="10" cx="24.8" cy="20.4" r="18.1"/>
		<g>
			<line fill="none" stroke="#231F20" stroke-width="0.5204" stroke-miterlimit="10" x1="30.9" y1="4.2" x2="18.8" y2="36.6"/>
			<line fill="none" stroke="#231F20" stroke-width="0.5204" stroke-miterlimit="10" x1="8.6" y1="14.3" x2="41" y2="26.4"/>
			<line fill="none" stroke="#231F20" stroke-width="0.5204" stroke-miterlimit="10" x1="17.6" y1="4.6" x2="32" y2="36.1"/>
			<line fill="none" stroke="#231F20" stroke-width="0.5204" stroke-miterlimit="10" x1="9.1" y1="27.6" x2="40.6" y2="13.2"/>
			<line fill="none" stroke="#231F20" stroke-width="0.5204" stroke-miterlimit="10" x1="24.2" y1="3.1" x2="25.4" y2="37.6"/>
			<line fill="none" stroke="#231F20" stroke-width="0.5204" stroke-miterlimit="10" x1="7.5" y1="21" x2="42.1" y2="19.8"/>
			<line fill="none" stroke="#231F20" stroke-width="0.5204" stroke-miterlimit="10" x1="12.2" y1="8.6" x2="37.5" y2="32.2"/>
			<line fill="none" stroke="#231F20" stroke-width="0.5204" stroke-miterlimit="10" x1="13" y1="33" x2="36.6" y2="7.7"/>
		</g>
		<circle fill="none" stroke="#404041" stroke-width="2.0817" stroke-miterlimit="10" cx="24.8" cy="20.4" r="17.3"/>
		<circle fill="#231F20" cx="24.8" cy="20.4" r="2.9"/>
	</g>
	<circle fill="none" cx="24.8" cy="20.4" r="16.4"/>
	<text transform="matrix(0.1685 -0.9857 0.9857 0.1685 8.518 18.4141)"><tspan x="0" y="0" fill="#FFFFFF" font-family="'Gotham-Light'" font-size="2.4123">E</tspan><tspan x="1.6" y="0" fill="#FFFFFF" font-family="'Gotham-Light'" font-size="2.4123" rotate="5.3">L</tspan><tspan x="3" y="0.1" fill="#FFFFFF" font-family="'Gotham-Light'" font-size="2.4123" rotate="8.9"> </tspan><tspan x="3.7" y="0.2" fill="#FFFFFF" font-family="'Gotham-Light'" font-size="2.4123" rotate="11.9">F</tspan><tspan x="5.2" y="0.6" fill="#FFFFFF" font-family="'Gotham-Light'" font-size="2.4123" rotate="18.3">R</tspan><tspan x="6.7" y="1.1" fill="#FFFFFF" font-family="'Gotham-Light'" font-size="2.4123" rotate="24.6">O</tspan><tspan x="8.5" y="1.9" fill="#FFFFFF" font-family="'Gotham-Light'" font-size="2.4123" rotate="31.3">N</tspan><tspan x="10.1" y="2.8" fill="#FFFFFF" font-family="'Gotham-Light'" font-size="2.4123" rotate="37.7">D</tspan><tspan x="11.5" y="3.9" fill="#FFFFFF" font-family="'Gotham-Light'" font-size="2.4123" rotate="44.3">O</tspan><tspan x="12.9" y="5.3" fill="#FFFFFF" font-family="'Gotham-Light'" font-size="2.4123" rotate="50.3">S</tspan><tspan x="13.9" y="6.5" fill="#FFFFFF" font-family="'Gotham-Light'" font-size="2.4123" rotate="56.4">O</tspan></text>
</g>
</svg>
