<svg version="1.1" id="Layer_1" xmlns="http://www.w3.org/2000/svg" xmlns:xlink="http://www.w3.org/1999/xlink" x="0px" y="0px"
	 viewBox="0 0 248.4 38.9" enable-background="new 0 0 248.4 38.9" xml:space="preserve">
<path fill="#231F20" d="M54.7,1.9h13.5v3.5h-9.6V9H67v3.5h-8.4v3.7h9.7v3.5H54.7V1.9z"/>
<path fill="#231F20" d="M71.8,1.9h3.9v14.3h8.9v3.6H71.8V1.9z"/>
<path fill="#231F20" d="M95.2,1.9h13.6v3.6h-9.7v3.8h8.5v3.6h-8.5v6.9h-3.9V1.9z"/>
<path fill="#231F20" d="M111.9,1.9h8.2c2.3,0,4,0.6,5.2,1.8c1,1,1.5,2.4,1.5,4.1v0.1c0,2.9-1.6,4.7-3.8,5.5l4.4,6.4h-4.6l-3.8-5.7
	h-3.1v5.7h-3.9V1.9z M119.8,10.6c1.9,0,3-1,3-2.5V8c0-1.7-1.2-2.5-3.1-2.5h-3.9v5.1H119.8z"/>
<path display="none" fill="#231F20" d="M129.7,10.9L129.7,10.9c0-5.1,4-9.3,9.5-9.3c5.5,0,9.5,4.1,9.5,9.2v0.1c0,5.1-4,9.2-9.5,9.2
	C133.7,20,129.7,15.9,129.7,10.9z M144.6,10.9L144.6,10.9c0-3.1-2.2-5.7-5.4-5.7c-3.2,0-5.4,2.5-5.4,5.6v0.1c0,3.1,2.2,5.6,5.4,5.6
	S144.6,13.9,144.6,10.9z"/>
<g>
	<g>
		<path fill="#231F20" d="M148.3,11.9c-0.2-0.1-0.2-0.3,0-0.4l0.6-0.2c0.2-0.1,0.2-0.2,0-0.3l-0.6-0.3c-0.2-0.1-0.2-0.3,0-0.4
			l0.5-0.3c0.2-0.1,0.2-0.2,0-0.3l-0.6-0.2c-0.2-0.1-0.2-0.2-0.1-0.4l0.5-0.4c0.2-0.1,0.1-0.3-0.1-0.3l-0.6-0.1
			c-0.2,0-0.3-0.2-0.1-0.3l0.4-0.4c0.2-0.1,0.1-0.3-0.1-0.3l-0.6,0c-0.2,0-0.3-0.2-0.1-0.3l0.4-0.5c0.1-0.2,0.1-0.3-0.1-0.3l-0.6,0
			c-0.2,0-0.3-0.1-0.2-0.3l0.3-0.5c0.1-0.2,0-0.3-0.2-0.3l-0.6,0.1c-0.2,0-0.3-0.1-0.2-0.3l0.2-0.5c0.1-0.2,0-0.3-0.2-0.2l-0.6,0.2
			c-0.2,0.1-0.3,0-0.3-0.3l0.1-0.5c0.1-0.2-0.1-0.3-0.3-0.2l-0.6,0.3c-0.2,0.1-0.3,0-0.3-0.2l0.1-0.6c0-0.2-0.1-0.3-0.3-0.2
			l-0.5,0.3c-0.2,0.1-0.3,0-0.3-0.2l0-0.6c0-0.2-0.1-0.3-0.3-0.1l-0.5,0.4c-0.2,0.1-0.3,0.1-0.4-0.1L142,1.9c0-0.2-0.2-0.3-0.3-0.1
			l-0.4,0.4c-0.1,0.2-0.3,0.1-0.4-0.1l-0.2-0.5c-0.1-0.2-0.2-0.2-0.3,0l-0.3,0.5c-0.1,0.2-0.3,0.2-0.4,0l-0.2-0.5
			c-0.1-0.2-0.2-0.2-0.3,0L138.8,2c-0.1,0.2-0.3,0.2-0.4,0l-0.3-0.5c-0.1-0.2-0.3-0.2-0.3,0l-0.2,0.5c-0.1,0.2-0.2,0.2-0.4,0.1
			l-0.4-0.4c-0.1-0.2-0.3-0.1-0.3,0.1l-0.1,0.6c0,0.2-0.2,0.3-0.4,0.1l-0.5-0.4c-0.2-0.1-0.3-0.1-0.3,0.1l0,0.6
			c0,0.2-0.2,0.3-0.3,0.2l-0.5-0.3c-0.2-0.1-0.3,0-0.3,0.2l0.1,0.6c0,0.2-0.1,0.3-0.3,0.2l-0.6-0.3c-0.2-0.1-0.3,0-0.3,0.2l0.1,0.5
			c0.1,0.2-0.1,0.3-0.3,0.3l-0.6-0.2c-0.2-0.1-0.3,0-0.2,0.2l0.2,0.5c0.1,0.2,0,0.3-0.2,0.3l-0.6-0.1c-0.2,0-0.3,0.1-0.2,0.3
			l0.3,0.5c0.1,0.2,0,0.3-0.2,0.3l-0.6,0c-0.2,0-0.3,0.1-0.2,0.3l0.4,0.5c0.1,0.2,0.1,0.3-0.2,0.3l-0.6,0c-0.2,0-0.3,0.1-0.1,0.3
			l0.4,0.4c0.2,0.2,0.1,0.3-0.1,0.3l-0.6,0.1c-0.2,0-0.2,0.2-0.1,0.3l0.5,0.4c0.2,0.1,0.1,0.3-0.1,0.4l-0.6,0.2
			c-0.2,0.1-0.2,0.2,0,0.3l0.5,0.3c0.2,0.1,0.2,0.3,0,0.4l-0.6,0.3c-0.2,0.1-0.2,0.2,0,0.3l0.6,0.2c0.2,0.1,0.2,0.2,0,0.4l-0.5,0.3
			c-0.2,0.1-0.2,0.3,0,0.3l0.6,0.2c0.2,0.1,0.2,0.2,0.1,0.4l-0.5,0.4c-0.2,0.1-0.1,0.3,0.1,0.3l0.6,0.1c0.2,0,0.3,0.2,0.1,0.3
			l-0.4,0.4c-0.1,0.2-0.1,0.3,0.1,0.3l0.6,0c0.2,0,0.3,0.1,0.2,0.3l-0.3,0.5c-0.1,0.2,0,0.3,0.2,0.3l0.6-0.1c0.2,0,0.3,0.1,0.2,0.3
			l-0.3,0.5c-0.1,0.2,0,0.3,0.2,0.3l0.6-0.2c0.2-0.1,0.3,0.1,0.3,0.3l-0.2,0.5c-0.1,0.2,0,0.3,0.2,0.2l0.6-0.2
			c0.2-0.1,0.3,0,0.3,0.2l-0.1,0.6c0,0.2,0.1,0.3,0.3,0.2l0.5-0.3c0.2-0.1,0.3,0,0.3,0.2l0,0.6c0,0.2,0.1,0.3,0.3,0.2l0.5-0.4
			c0.2-0.1,0.3-0.1,0.3,0.2l0.1,0.6c0,0.2,0.2,0.3,0.3,0.1l0.4-0.4c0.2-0.1,0.3-0.1,0.4,0.1l0.1,0.5c0.1,0.2,0.2,0.2,0.3,0.1
			l0.4-0.5c0.1-0.2,0.3-0.1,0.4,0.1l0.2,0.5c0.1,0.2,0.2,0.2,0.3,0l0.3-0.5c0.1-0.2,0.3-0.2,0.4,0l0.3,0.5c0.1,0.2,0.3,0.2,0.3,0
			l0.2-0.5c0.1-0.2,0.3-0.2,0.4,0l0.4,0.5c0.1,0.2,0.3,0.1,0.3-0.1l0.1-0.5c0.1-0.2,0.2-0.3,0.4-0.1l0.4,0.4
			c0.2,0.2,0.3,0.1,0.3-0.1l0.1-0.6c0-0.2,0.2-0.3,0.4-0.2l0.5,0.4c0.2,0.1,0.3,0.1,0.3-0.2l0-0.6c0-0.2,0.1-0.3,0.3-0.2l0.5,0.3
			c0.2,0.1,0.3,0,0.3-0.2l-0.1-0.6c0-0.2,0.1-0.3,0.3-0.2l0.6,0.2c0.2,0.1,0.3,0,0.2-0.2l-0.2-0.5c-0.1-0.2,0.1-0.3,0.3-0.3l0.6,0.2
			c0.2,0.1,0.3-0.1,0.2-0.2l-0.2-0.5c-0.1-0.2,0-0.3,0.2-0.3l0.6,0.1c0.2,0,0.3-0.1,0.2-0.3l-0.3-0.5c-0.1-0.2,0-0.3,0.2-0.3l0.6,0
			c0.2,0,0.3-0.1,0.1-0.3l-0.4-0.4c-0.1-0.2-0.1-0.3,0.1-0.3l0.6-0.1c0.2,0,0.3-0.2,0.1-0.3l-0.5-0.4c-0.2-0.1-0.1-0.3,0.1-0.3
			l0.6-0.2c0.2-0.1,0.2-0.2,0.1-0.3L148.3,11.9z"/>
	</g>
	<path fill="#FFFFFF" d="M144.6,10.9L144.6,10.9c0-3.1-2.2-5.7-5.4-5.7c-3.2,0-5.4,2.5-5.4,5.6v0.1c0,3.1,2.2,5.6,5.4,5.6
		S144.6,13.9,144.6,10.9z"/>
</g>
<g>
	<g>
		<path fill="#231F20" d="M210,11.9c-0.2-0.1-0.2-0.3,0-0.4l0.6-0.2c0.2-0.1,0.2-0.2,0-0.3l-0.6-0.3c-0.2-0.1-0.2-0.3,0-0.4l0.5-0.3
			c0.2-0.1,0.2-0.2,0-0.3L210,9.6c-0.2-0.1-0.2-0.2-0.1-0.4l0.5-0.4c0.2-0.1,0.1-0.3-0.1-0.3l-0.6-0.1c-0.2,0-0.3-0.2-0.1-0.3
			l0.4-0.4c0.2-0.1,0.1-0.3-0.1-0.3l-0.6,0c-0.2,0-0.3-0.2-0.1-0.3l0.4-0.5c0.1-0.2,0.1-0.3-0.1-0.3l-0.6,0c-0.2,0-0.3-0.1-0.2-0.3
			l0.3-0.5c0.1-0.2,0-0.3-0.2-0.3l-0.6,0.1c-0.2,0-0.3-0.1-0.2-0.3l0.2-0.5c0.1-0.2,0-0.3-0.2-0.2l-0.6,0.2c-0.2,0.1-0.3,0-0.3-0.3
			l0.1-0.5c0.1-0.2-0.1-0.3-0.3-0.2l-0.6,0.3c-0.2,0.1-0.3,0-0.3-0.2l0.1-0.6c0-0.2-0.1-0.3-0.3-0.2l-0.5,0.3
			c-0.2,0.1-0.3,0-0.3-0.2l0-0.6c0-0.2-0.1-0.3-0.3-0.1l-0.5,0.4c-0.2,0.1-0.3,0.1-0.4-0.1l-0.1-0.6c0-0.2-0.2-0.3-0.3-0.1L203,2.3
			c-0.1,0.2-0.3,0.1-0.4-0.1l-0.2-0.5c-0.1-0.2-0.2-0.2-0.3,0l-0.3,0.5c-0.1,0.2-0.3,0.2-0.4,0l-0.2-0.5c-0.1-0.2-0.2-0.2-0.3,0
			L200.5,2c-0.1,0.2-0.3,0.2-0.4,0l-0.3-0.5c-0.1-0.2-0.3-0.2-0.3,0l-0.2,0.5c-0.1,0.2-0.2,0.2-0.4,0.1l-0.4-0.4
			c-0.1-0.2-0.3-0.1-0.3,0.1l-0.1,0.6c0,0.2-0.2,0.3-0.4,0.1l-0.5-0.4C197.1,2,197,2.1,197,2.3l0,0.6c0,0.2-0.2,0.3-0.3,0.2
			l-0.5-0.3c-0.2-0.1-0.3,0-0.3,0.2l0.1,0.6c0,0.2-0.1,0.3-0.3,0.2L195,3.4c-0.2-0.1-0.3,0-0.3,0.2l0.1,0.5c0.1,0.2-0.1,0.3-0.3,0.3
			L194,4.2c-0.2-0.1-0.3,0-0.2,0.2l0.2,0.5c0.1,0.2,0,0.3-0.2,0.3l-0.6-0.1c-0.2,0-0.3,0.1-0.2,0.3l0.3,0.5c0.1,0.2,0,0.3-0.2,0.3
			l-0.6,0c-0.2,0-0.3,0.1-0.2,0.3l0.4,0.5c0.1,0.2,0.1,0.3-0.2,0.3l-0.6,0c-0.2,0-0.3,0.1-0.1,0.3l0.4,0.4c0.2,0.2,0.1,0.3-0.1,0.3
			l-0.6,0.1c-0.2,0-0.2,0.2-0.1,0.3l0.5,0.4c0.2,0.1,0.1,0.3-0.1,0.4l-0.6,0.2c-0.2,0.1-0.2,0.2,0,0.3l0.5,0.3
			c0.2,0.1,0.2,0.3,0,0.4l-0.6,0.3c-0.2,0.1-0.2,0.2,0,0.3l0.6,0.2c0.2,0.1,0.2,0.2,0,0.4l-0.5,0.3c-0.2,0.1-0.2,0.3,0,0.3l0.6,0.2
			c0.2,0.1,0.2,0.2,0.1,0.4l-0.5,0.4c-0.2,0.1-0.1,0.3,0.1,0.3l0.6,0.1c0.2,0,0.3,0.2,0.1,0.3l-0.4,0.4c-0.1,0.2-0.1,0.3,0.1,0.3
			l0.6,0c0.2,0,0.3,0.1,0.2,0.3l-0.3,0.5c-0.1,0.2,0,0.3,0.2,0.3l0.6-0.1c0.2,0,0.3,0.1,0.2,0.3l-0.3,0.5c-0.1,0.2,0,0.3,0.2,0.3
			l0.6-0.2c0.2-0.1,0.3,0.1,0.3,0.3l-0.2,0.5c-0.1,0.2,0,0.3,0.2,0.2l0.6-0.2c0.2-0.1,0.3,0,0.3,0.2l-0.1,0.6c0,0.2,0.1,0.3,0.3,0.2
			l0.5-0.3c0.2-0.1,0.3,0,0.3,0.2l0,0.6c0,0.2,0.1,0.3,0.3,0.2l0.5-0.4c0.2-0.1,0.3-0.1,0.3,0.2l0.1,0.6c0,0.2,0.2,0.3,0.3,0.1
			l0.4-0.4c0.2-0.1,0.3-0.1,0.4,0.1l0.1,0.5c0.1,0.2,0.2,0.2,0.3,0.1l0.4-0.5c0.1-0.2,0.3-0.1,0.4,0.1L200,20c0.1,0.2,0.2,0.2,0.3,0
			l0.3-0.5c0.1-0.2,0.3-0.2,0.4,0l0.3,0.5c0.1,0.2,0.3,0.2,0.3,0l0.2-0.5c0.1-0.2,0.3-0.2,0.4,0l0.4,0.5c0.1,0.2,0.3,0.1,0.3-0.1
			l0.1-0.5c0.1-0.2,0.2-0.3,0.4-0.1l0.4,0.4c0.2,0.2,0.3,0.1,0.3-0.1l0.1-0.6c0-0.2,0.2-0.3,0.4-0.2l0.5,0.4
			c0.2,0.1,0.3,0.1,0.3-0.2l0-0.6c0-0.2,0.1-0.3,0.3-0.2l0.5,0.3c0.2,0.1,0.3,0,0.3-0.2l-0.1-0.6c0-0.2,0.1-0.3,0.3-0.2l0.6,0.2
			c0.2,0.1,0.3,0,0.2-0.2l-0.2-0.5c-0.1-0.2,0.1-0.3,0.3-0.3l0.6,0.2c0.2,0.1,0.3-0.1,0.2-0.2l-0.2-0.5c-0.1-0.2,0-0.3,0.2-0.3
			l0.6,0.1c0.2,0,0.3-0.1,0.2-0.3l-0.3-0.5c-0.1-0.2,0-0.3,0.2-0.3l0.6,0c0.2,0,0.3-0.1,0.1-0.3l-0.4-0.4c-0.1-0.2-0.1-0.3,0.1-0.3
			l0.6-0.1c0.2,0,0.3-0.2,0.1-0.3l-0.5-0.4c-0.2-0.1-0.1-0.3,0.1-0.3l0.6-0.2c0.2-0.1,0.2-0.2,0.1-0.3L210,11.9z"/>
	</g>
	<path fill="#FFFFFF" d="M206.3,10.9L206.3,10.9c0-3.1-2.2-5.7-5.4-5.7s-5.4,2.5-5.4,5.6v0.1c0,3.1,2.2,5.6,5.4,5.6
		S206.3,13.9,206.3,10.9z"/>
</g>
<g>
	<g>
		<path fill="#231F20" d="M247.6,11.9c-0.2-0.1-0.2-0.3,0-0.4l0.6-0.2c0.2-0.1,0.2-0.2,0-0.3l-0.6-0.3c-0.2-0.1-0.2-0.3,0-0.4
			l0.5-0.3c0.2-0.1,0.2-0.2,0-0.3l-0.6-0.2c-0.2-0.1-0.2-0.2-0.1-0.4l0.5-0.4c0.2-0.1,0.1-0.3-0.1-0.3l-0.6-0.1
			c-0.2,0-0.3-0.2-0.1-0.3l0.4-0.4c0.2-0.1,0.1-0.3-0.1-0.3l-0.6,0c-0.2,0-0.3-0.2-0.1-0.3l0.4-0.5c0.1-0.2,0.1-0.3-0.1-0.3l-0.6,0
			c-0.2,0-0.3-0.1-0.2-0.3l0.3-0.5c0.1-0.2,0-0.3-0.2-0.3l-0.6,0.1c-0.2,0-0.3-0.1-0.2-0.3l0.2-0.5c0.1-0.2,0-0.3-0.2-0.2l-0.6,0.2
			c-0.2,0.1-0.3,0-0.3-0.3l0.1-0.5c0.1-0.2-0.1-0.3-0.3-0.2l-0.6,0.3c-0.2,0.1-0.3,0-0.3-0.2l0.1-0.6c0-0.2-0.1-0.3-0.3-0.2
			l-0.5,0.3c-0.2,0.1-0.3,0-0.3-0.2l0-0.6c0-0.2-0.1-0.3-0.3-0.1l-0.5,0.4c-0.2,0.1-0.3,0.1-0.4-0.1l-0.1-0.6c0-0.2-0.2-0.3-0.3-0.1
			l-0.4,0.4c-0.1,0.2-0.3,0.1-0.4-0.1L240,1.6c-0.1-0.2-0.2-0.2-0.3,0l-0.3,0.5c-0.1,0.2-0.3,0.2-0.4,0l-0.2-0.5
			c-0.1-0.2-0.2-0.2-0.3,0L238.1,2c-0.1,0.2-0.3,0.2-0.4,0l-0.3-0.5c-0.1-0.2-0.3-0.2-0.3,0l-0.2,0.5c-0.1,0.2-0.2,0.2-0.4,0.1
			l-0.4-0.4c-0.1-0.2-0.3-0.1-0.3,0.1l-0.1,0.6c0,0.2-0.2,0.3-0.4,0.1l-0.5-0.4c-0.2-0.1-0.3-0.1-0.3,0.1l0,0.6
			c0,0.2-0.2,0.3-0.3,0.2l-0.5-0.3c-0.2-0.1-0.3,0-0.3,0.2l0.1,0.6c0,0.2-0.1,0.3-0.3,0.2l-0.6-0.3c-0.2-0.1-0.3,0-0.3,0.2l0.1,0.5
			c0.1,0.2-0.1,0.3-0.3,0.3l-0.6-0.2c-0.2-0.1-0.3,0-0.2,0.2l0.2,0.5c0.1,0.2,0,0.3-0.2,0.3l-0.6-0.1c-0.2,0-0.3,0.1-0.2,0.3
			l0.3,0.5c0.1,0.2,0,0.3-0.2,0.3l-0.6,0c-0.2,0-0.3,0.1-0.2,0.3l0.4,0.5c0.1,0.2,0.1,0.3-0.2,0.3l-0.6,0c-0.2,0-0.3,0.1-0.1,0.3
			l0.4,0.4c0.2,0.2,0.1,0.3-0.1,0.3l-0.6,0.1c-0.2,0-0.2,0.2-0.1,0.3l0.5,0.4c0.2,0.1,0.1,0.3-0.1,0.4l-0.6,0.2
			c-0.2,0.1-0.2,0.2,0,0.3l0.5,0.3c0.2,0.1,0.2,0.3,0,0.4l-0.6,0.3c-0.2,0.1-0.2,0.2,0,0.3l0.6,0.2c0.2,0.1,0.2,0.2,0,0.4l-0.5,0.3
			c-0.2,0.1-0.2,0.3,0,0.3l0.6,0.2c0.2,0.1,0.2,0.2,0.1,0.4l-0.5,0.4c-0.2,0.1-0.1,0.3,0.1,0.3l0.6,0.1c0.2,0,0.3,0.2,0.1,0.3
			l-0.4,0.4c-0.1,0.2-0.1,0.3,0.1,0.3l0.6,0c0.2,0,0.3,0.1,0.2,0.3l-0.3,0.5c-0.1,0.2,0,0.3,0.2,0.3l0.6-0.1c0.2,0,0.3,0.1,0.2,0.3
			l-0.3,0.5c-0.1,0.2,0,0.3,0.2,0.3l0.6-0.2c0.2-0.1,0.3,0.1,0.3,0.3l-0.2,0.5c-0.1,0.2,0,0.3,0.2,0.2l0.6-0.2
			c0.2-0.1,0.3,0,0.3,0.2l-0.1,0.6c0,0.2,0.1,0.3,0.3,0.2l0.5-0.3c0.2-0.1,0.3,0,0.3,0.2l0,0.6c0,0.2,0.1,0.3,0.3,0.2l0.5-0.4
			c0.2-0.1,0.3-0.1,0.3,0.2l0.1,0.6c0,0.2,0.2,0.3,0.3,0.1l0.4-0.4c0.2-0.1,0.3-0.1,0.4,0.1l0.1,0.5c0.1,0.2,0.2,0.2,0.3,0.1
			l0.4-0.5c0.1-0.2,0.3-0.1,0.4,0.1l0.2,0.5c0.1,0.2,0.2,0.2,0.3,0l0.3-0.5c0.1-0.2,0.3-0.2,0.4,0l0.3,0.5c0.1,0.2,0.3,0.2,0.3,0
			l0.2-0.5c0.1-0.2,0.3-0.2,0.4,0l0.4,0.5c0.1,0.2,0.3,0.1,0.3-0.1l0.1-0.5c0.1-0.2,0.2-0.3,0.4-0.1l0.4,0.4
			c0.2,0.2,0.3,0.1,0.3-0.1l0.1-0.6c0-0.2,0.2-0.3,0.4-0.2l0.5,0.4c0.2,0.1,0.3,0.1,0.3-0.2l0-0.6c0-0.2,0.1-0.3,0.3-0.2l0.5,0.3
			c0.2,0.1,0.3,0,0.3-0.2l-0.1-0.6c0-0.2,0.1-0.3,0.3-0.2l0.6,0.2c0.2,0.1,0.3,0,0.2-0.2l-0.2-0.5c-0.1-0.2,0.1-0.3,0.3-0.3l0.6,0.2
			c0.2,0.1,0.3-0.1,0.2-0.2l-0.2-0.5c-0.1-0.2,0-0.3,0.2-0.3l0.6,0.1c0.2,0,0.3-0.1,0.2-0.3l-0.3-0.5c-0.1-0.2,0-0.3,0.2-0.3l0.6,0
			c0.2,0,0.3-0.1,0.1-0.3l-0.4-0.4c-0.1-0.2-0.1-0.3,0.1-0.3l0.6-0.1c0.2,0,0.3-0.2,0.1-0.3l-0.5-0.4c-0.2-0.1-0.1-0.3,0.1-0.3
			l0.6-0.2c0.2-0.1,0.2-0.2,0.1-0.3L247.6,11.9z"/>
	</g>
	<path fill="#FFFFFF" d="M243.9,10.9L243.9,10.9c0-3.1-2.2-5.7-5.4-5.7s-5.4,2.5-5.4,5.6v0.1c0,3.1,2.2,5.6,5.4,5.6
		S243.9,13.9,243.9,10.9z"/>
</g>
<path fill="#231F20" d="M152,1.9h3.6l8.4,11v-11h3.9v17.8h-3.3l-8.6-11.3v11.3H152V1.9z"/>
<path fill="#231F20" d="M172.2,1.9h7c5.6,0,9.5,3.8,9.5,8.9v0.1c0,5-3.9,8.9-9.5,8.9h-7V1.9z M176.1,5.4v10.8h3
	c3.2,0,5.4-2.2,5.4-5.3v-0.1c0-3.2-2.2-5.4-5.4-5.4H176.1z"/>
<path fill="#231F20" d="M212.4,17.1l2.3-2.8c1.6,1.3,3.3,2.2,5.3,2.2c1.6,0,2.6-0.6,2.6-1.7v-0.1c0-1-0.6-1.5-3.6-2.3
	c-3.6-0.9-5.9-1.9-5.9-5.5V7c0-3.2,2.6-5.4,6.2-5.4c2.6,0,4.8,0.8,6.6,2.3l-2,3c-1.6-1.1-3.1-1.8-4.6-1.8S217,5.8,217,6.7v0.1
	c0,1.2,0.8,1.6,3.8,2.3c3.6,0.9,5.7,2.2,5.7,5.4v0.1c0,3.5-2.7,5.5-6.6,5.5C217.3,20,214.5,19,212.4,17.1z"/>
<path fill="#58595B" d="M54.8,25h5.1c1.4,0,2.5,0.4,3.2,1.1c0.5,0.5,0.8,1.2,0.8,1.9v0c0,1.7-1.1,2.5-2.1,2.9c1.5,0.4,2.8,1.2,2.8,3
	v0c0,2.1-1.8,3.4-4.4,3.4h-5.4V25z M63,28.2c0-1.4-1.1-2.3-3.1-2.3h-4.2v4.9h4.1C61.7,30.8,63,29.9,63,28.2L63,28.2z M59.9,31.6
	h-4.2v5h4.5c2.1,0,3.5-1,3.5-2.5v0C63.7,32.5,62.4,31.6,59.9,31.6z"/>
<path fill="#58595B" d="M67.5,25h0.9v12.4h-0.9V25z"/>
<path fill="#58595B" d="M71.5,31.3L71.5,31.3c0-3.5,2.6-6.4,6.2-6.4c2.2,0,3.5,0.8,4.8,2l-0.7,0.7c-1.1-1-2.3-1.8-4.2-1.8
	c-3,0-5.2,2.4-5.2,5.5v0c0,3.1,2.3,5.6,5.2,5.6c1.8,0,3-0.7,4.3-1.9l0.6,0.6c-1.3,1.3-2.7,2.2-4.9,2.2
	C74.1,37.6,71.5,34.8,71.5,31.3z"/>
<path fill="#58595B" d="M88.7,32.5L83.4,25h1.2l4.6,6.7l4.7-6.7H95l-5.3,7.5v4.9h-0.9V32.5z"/>
<path fill="#58595B" d="M95.5,31.3L95.5,31.3c0-3.5,2.6-6.4,6.2-6.4c2.2,0,3.5,0.8,4.8,2l-0.7,0.7c-1.1-1-2.3-1.8-4.2-1.8
	c-3,0-5.2,2.4-5.2,5.5v0c0,3.1,2.3,5.6,5.2,5.6c1.8,0,3-0.7,4.3-1.9l0.6,0.6c-1.3,1.3-2.7,2.2-4.9,2.2
	C98.2,37.6,95.5,34.8,95.5,31.3z"/>
<path fill="#58595B" d="M108.9,25h0.9v11.5h7.3v0.8h-8.2V25z"/>
<path fill="#58595B" d="M119.7,25h8.8v0.8h-7.9v4.9h7.1v0.8h-7.1v5h8v0.8h-8.9V25z"/>
<path fill="#58595B" d="M140.6,25h1l3.9,11l3.6-11.1h0.7l3.6,11.1l3.9-11h1l-4.5,12.5h-0.7l-3.6-10.8l-3.6,10.8h-0.7L140.6,25z"/>
<path fill="#58595B" d="M159.7,31.3L159.7,31.3c0-3.4,2.5-6.4,6.2-6.4s6.2,3,6.2,6.4v0c0,3.4-2.5,6.4-6.2,6.4
	C162.1,37.6,159.7,34.7,159.7,31.3z M171.2,31.3L171.2,31.3c0-3.1-2.2-5.6-5.3-5.6c-3.1,0-5.3,2.5-5.3,5.5v0c0,3.1,2.2,5.6,5.3,5.6
	S171.2,34.3,171.2,31.3z"/>
<path fill="#58595B" d="M175,25h5.2c1.5,0,2.7,0.5,3.5,1.2c0.6,0.6,0.9,1.4,0.9,2.3v0c0,2.1-1.5,3.3-3.6,3.5l4.1,5.3H184l-3.9-5.1
	H176v5.1H175V25z M180.1,31.5c2.1,0,3.6-1,3.6-2.8v0c0-1.7-1.3-2.7-3.6-2.7H176v5.6H180.1z"/>
<path fill="#58595B" d="M187.6,25h0.9v8.1l7.9-8.1h1.3l-5.4,5.5l5.6,6.9h-1.2l-5.1-6.3l-3.1,3.1v3.2h-0.9V25z"/>
<path fill="#58595B" d="M199.1,35.6l0.6-0.7c1.4,1.3,2.6,1.8,4.4,1.8c1.9,0,3.1-1,3.1-2.5v0c0-1.3-0.7-2.1-3.5-2.6
	c-3-0.6-4.2-1.6-4.2-3.5v0c0-1.8,1.7-3.3,4-3.3c1.8,0,3,0.5,4.2,1.5l-0.6,0.7c-1.2-1-2.3-1.4-3.7-1.4c-1.8,0-3,1-3,2.3v0
	c0,1.3,0.7,2.1,3.6,2.7c2.9,0.6,4.1,1.6,4.1,3.4v0c0,2-1.7,3.4-4.1,3.4C202.1,37.6,200.6,37,199.1,35.6z"/>
<path fill="#58595B" d="M211,25h0.9v5.7h7.9V25h0.9v12.4h-0.9v-5.8h-7.9v5.8H211V25z"/>
<path fill="#58595B" d="M223.7,31.3L223.7,31.3c0-3.4,2.5-6.4,6.2-6.4c3.8,0,6.2,3,6.2,6.4v0c0,3.4-2.5,6.4-6.2,6.4
	S223.7,34.7,223.7,31.3z M235.2,31.3L235.2,31.3c0-3.1-2.2-5.6-5.3-5.6c-3.1,0-5.3,2.5-5.3,5.5v0c0,3.1,2.2,5.6,5.3,5.6
	S235.2,34.3,235.2,31.3z"/>
<path fill="#58595B" d="M239.1,25h4.5c2.7,0,4.6,1.4,4.6,3.8v0c0,2.6-2.2,3.9-4.8,3.9H240v4.6h-0.9V25z M243.4,32
	c2.3,0,3.9-1.2,3.9-3v0c0-2-1.5-3-3.8-3H240V32H243.4z"/>
<g>
	<g>
		<circle fill="none" stroke="#231F20" stroke-width="2.4349" stroke-miterlimit="10" cx="19.3" cy="19.5" r="18.1"/>
		<g>
			<line fill="none" stroke="#231F20" stroke-width="0.5204" stroke-miterlimit="10" x1="25.4" y1="3.3" x2="13.3" y2="35.7"/>
			<line fill="none" stroke="#231F20" stroke-width="0.5204" stroke-miterlimit="10" x1="3.1" y1="13.5" x2="35.5" y2="25.6"/>
			<line fill="none" stroke="#231F20" stroke-width="0.5204" stroke-miterlimit="10" x1="12.2" y1="3.8" x2="26.5" y2="35.2"/>
			<line fill="none" stroke="#231F20" stroke-width="0.5204" stroke-miterlimit="10" x1="3.6" y1="26.7" x2="35.1" y2="12.3"/>
			<line fill="none" stroke="#231F20" stroke-width="0.5204" stroke-miterlimit="10" x1="18.7" y1="2.2" x2="20" y2="36.8"/>
			<line fill="none" stroke="#231F20" stroke-width="0.5204" stroke-miterlimit="10" x1="2.1" y1="20.1" x2="36.6" y2="18.9"/>
			<line fill="none" stroke="#231F20" stroke-width="0.5204" stroke-miterlimit="10" x1="6.7" y1="7.7" x2="32" y2="31.3"/>
			<line fill="none" stroke="#231F20" stroke-width="0.5204" stroke-miterlimit="10" x1="7.6" y1="32.2" x2="31.1" y2="6.9"/>
		</g>
		<circle fill="none" stroke="#404041" stroke-width="2.0817" stroke-miterlimit="10" cx="19.3" cy="19.5" r="17.3"/>
		<circle fill="#231F20" cx="19.3" cy="19.5" r="2.9"/>
	</g>
	<circle fill="none" cx="19.3" cy="19.5" r="16.4"/>
	<text transform="matrix(0.1685 -0.9857 0.9857 0.1685 3.0325 17.556)"><tspan x="0" y="0" fill="#FFFFFF" font-family="'Gotham-Light'" font-size="2.4123">E</tspan><tspan x="1.6" y="0" fill="#FFFFFF" font-family="'Gotham-Light'" font-size="2.4123" rotate="5.3">L</tspan><tspan x="3" y="0.1" fill="#FFFFFF" font-family="'Gotham-Light'" font-size="2.4123" rotate="8.9"> </tspan><tspan x="3.7" y="0.2" fill="#FFFFFF" font-family="'Gotham-Light'" font-size="2.4123" rotate="11.9">F</tspan><tspan x="5.2" y="0.6" fill="#FFFFFF" font-family="'Gotham-Light'" font-size="2.4123" rotate="18.3">R</tspan><tspan x="6.7" y="1.1" fill="#FFFFFF" font-family="'Gotham-Light'" font-size="2.4123" rotate="24.6">O</tspan><tspan x="8.5" y="1.9" fill="#FFFFFF" font-family="'Gotham-Light'" font-size="2.4123" rotate="31.3">N</tspan><tspan x="10.1" y="2.8" fill="#FFFFFF" font-family="'Gotham-Light'" font-size="2.4123" rotate="37.7">D</tspan><tspan x="11.5" y="3.9" fill="#FFFFFF" font-family="'Gotham-Light'" font-size="2.4123" rotate="44.3">O</tspan><tspan x="12.9" y="5.3" fill="#FFFFFF" font-family="'Gotham-Light'" font-size="2.4123" rotate="50.3">S</tspan><tspan x="13.9" y="6.5" fill="#FFFFFF" font-family="'Gotham-Light'" font-size="2.4123" rotate="56.4">O</tspan></text>
</g>
</svg>
