<svg version="1.1" id="Layer_1" xmlns="http://www.w3.org/2000/svg" xmlns:xlink="http://www.w3.org/1999/xlink" x="0px" y="0px"
	 viewBox="0 0 2227.9 347.3" enable-background="new 0 0 2227.9 347.3" xml:space="preserve">
<path fill="#222222" d="M489.1,16.9h120.3v31.2h-85.4v32.4h75.2v31.2h-75.2v33.5h86.6v31.2H489.1V16.9z"/>
<path fill="#222222" d="M641.7,16.9h35.1v127.6h79.5v31.9H641.7V16.9z"/>
<path fill="#222222" d="M851.1,16.9h121.4v31.9h-86.3v33.9h76.1v31.9h-76.1v61.7h-35.1V16.9z"/>
<path fill="#222222" d="M1000.5,16.9h72.9c20.3,0,36,5.7,46.5,16.2c8.9,8.9,13.7,21.4,13.7,36.5V70c0,25.7-13.9,41.9-34.2,49.4
	l39,57h-41l-34.2-51h-27.6v51h-35.1V16.9z M1071.1,94.4c17.1,0,26.9-9.1,26.9-22.6v-0.5c0-15-10.5-22.8-27.6-22.8h-34.9v45.8H1071.1
	z"/>
<path fill="#222222" d="M1159.5,97.1v-0.5c0-45.3,35.8-82.5,85-82.5c49.2,0,84.5,36.7,84.5,82v0.5c0,45.3-35.8,82.5-85,82.5
	C1194.8,179.1,1159.5,142.5,1159.5,97.1z M1292.3,97.1v-0.5c0-27.3-20-50.1-48.3-50.1c-28.3,0-47.8,22.3-47.8,49.7v0.5
	c0,27.3,20,50.1,48.3,50.1C1272.7,146.8,1292.3,124.5,1292.3,97.1z"/>
<path fill="#222222" d="M1358.8,16.9h32.4l74.7,98.2V16.9h34.6v159.5h-29.8L1393.5,75v101.4h-34.6V16.9z"/>
<path fill="#222222" d="M1538.8,16.9h62.2c50.1,0,84.8,34.4,84.8,79.3v0.5c0,44.9-34.6,79.7-84.8,79.7h-62.2V16.9z M1573.9,48.6
	v96.1h27.1c28.7,0,48.1-19.4,48.1-47.6v-0.5c0-28.3-19.4-48.1-48.1-48.1H1573.9z"/>
<path fill="#222222" d="M1709.9,97.1v-0.5c0-45.3,35.8-82.5,85-82.5c49.2,0,84.5,36.7,84.5,82v0.5c0,45.3-35.8,82.5-85,82.5
	C1745.2,179.1,1709.9,142.5,1709.9,97.1z M1842.7,97.1v-0.5c0-27.3-20-50.1-48.3-50.1c-28.3,0-47.8,22.3-47.8,49.7v0.5
	c0,27.3,20,50.1,48.3,50.1C1823.1,146.8,1842.7,124.5,1842.7,97.1z"/>
<path fill="#222222" d="M1898.5,153.2l20.7-24.8c14.4,11.8,29.4,19.4,47.6,19.4c14.3,0,23-5.7,23-15v-0.5c0-8.9-5.5-13.4-32.1-20.3
	c-32.1-8.2-52.9-17.1-52.9-48.8v-0.5c0-28.9,23.2-48.1,55.8-48.1c23.2,0,43.1,7.3,59.2,20.3l-18.2,26.4c-14.1-9.8-28-15.7-41.5-15.7
	s-20.5,6.2-20.5,13.9V60c0,10.5,6.8,13.9,34.4,21c32.4,8.4,50.6,20,50.6,47.8v0.5c0,31.7-24.2,49.4-58.6,49.4
	C1942,178.7,1917.6,170.2,1898.5,153.2z"/>
<path fill="#222222" d="M2047,97.1v-0.5c0-45.3,35.8-82.5,85-82.5c49.2,0,84.5,36.7,84.5,82v0.5c0,45.3-35.8,82.5-85,82.5
	C2082.3,179.1,2047,142.5,2047,97.1z M2179.8,97.1v-0.5c0-27.3-20-50.1-48.3-50.1c-28.3,0-47.8,22.3-47.8,49.7v0.5
	c0,27.3,20,50.1,48.3,50.1C2160.2,146.8,2179.8,124.5,2179.8,97.1z"/>
<path fill="#555655" d="M490,223.9h45.7c12.5,0,22.6,3.6,28.8,9.8c4.6,4.6,7.1,10.4,7.1,17.4v0.3c0,15-9.8,22.6-18.8,26.3
	c13.3,3.5,25,11.1,25,26.4v0.3c0,18.5-15.8,30.2-39.7,30.2H490V223.9z M563.3,251.9c0-12.2-10-20.4-27.7-20.4h-37.3V275h36.5
	c16.6,0,28.5-8.1,28.5-22.8V251.9z M535.8,282.5h-37.5V327h40.2c19,0,31-8.7,31-22.6v-0.3C569.5,290.5,557.6,282.5,535.8,282.5z"/>
<path fill="#555655" d="M603.5,223.9h8.2v110.7h-8.2V223.9z"/>
<path fill="#555655" d="M638.9,279.5v-0.3c0-31.3,23.4-57.3,55.4-57.3c19.8,0,31.6,7.3,43,17.7l-5.9,6c-9.6-9.3-20.7-16.3-37.3-16.3
	c-26.6,0-46.7,21.7-46.7,49.5v0.3c0,28,20.4,49.8,46.8,49.8c16,0,26.9-6.2,38.1-17.2l5.5,5.4c-11.7,11.5-24.4,19.3-44,19.3
	C662.3,336.5,638.9,311.3,638.9,279.5z"/>
<path fill="#555655" d="M793.1,290.8l-47.5-66.9H756l41.5,59.5l41.6-59.5h9.8l-47.5,66.8v44h-8.2V290.8z"/>
<path fill="#555655" d="M854.1,279.5v-0.3c0-31.3,23.4-57.3,55.4-57.3c19.8,0,31.6,7.3,43,17.7l-5.9,6c-9.6-9.3-20.7-16.3-37.3-16.3
	c-26.6,0-46.7,21.7-46.7,49.5v0.3c0,28,20.4,49.8,46.8,49.8c16,0,26.9-6.2,38.1-17.2l5.5,5.4c-11.7,11.5-24.4,19.3-44,19.3
	C877.5,336.5,854.1,311.3,854.1,279.5z"/>
<path fill="#555655" d="M973.8,223.9h8.2V327h65v7.6h-73.3V223.9z"/>
<path fill="#555655" d="M1069.8,223.9h78.8v7.6h-70.6V275h63.4v7.6h-63.4V327h71.4v7.6h-79.6V223.9z"/>
<path fill="#555655" d="M1256.5,223.9h9.2l34.8,98.6l32.4-98.9h6.3l32.4,98.9l34.8-98.6h8.5l-40.2,111.5h-6.6l-32.4-96.2l-32.4,96.2
	h-6.6L1256.5,223.9z"/>
<path fill="#555655" d="M1427,279.5v-0.3c0-30.2,22.3-57.3,55.8-57.3c33.5,0,55.5,26.7,55.5,57v0.3c0,30.2-22.3,57.3-55.8,57.3
	C1449,336.5,1427,309.8,1427,279.5z M1529.9,279.5v-0.3c0-27.4-19.9-49.8-47.3-49.8c-27.4,0-47,22.1-47,49.5v0.3
	c0,27.4,19.9,49.8,47.3,49.8C1510.3,329.1,1529.9,306.9,1529.9,279.5z"/>
<path fill="#555655" d="M1564.5,223.9h46.5c13.6,0,24.5,4.3,31.2,10.9c5.2,5.2,8.4,12.7,8.4,20.6v0.3c0,18.5-13.8,29.1-32.4,31.6
	l36.5,47.3h-10.4l-35.3-45.9h-36.2v45.9h-8.2V223.9z M1610.1,281.3c18.5,0,32.3-9.3,32.3-25.3v-0.3c0-14.9-11.7-24.2-31.8-24.2
	h-37.8v49.8H1610.1z"/>
<path fill="#555655" d="M1677,223.9h8.2v72.8l70.6-72.8h11.2l-48.4,48.9l50.5,61.9h-10.8l-45.6-56l-27.5,27.8v28.2h-8.2V223.9z"/>
<path fill="#555655" d="M1779.5,318.5l5.4-6.2c12.2,11.2,23.4,16.5,39.7,16.5c16.6,0,28-9.3,28-22v-0.3c0-11.7-6.2-18.5-31.3-23.6
	c-26.6-5.4-37.3-14.4-37.3-31.2v-0.3c0-16.5,15-29.1,35.6-29.1c16.1,0,26.7,4.4,38,13.4l-5.2,6.5c-10.4-9-20.9-12.5-33.1-12.5
	c-16.3,0-27.1,9.3-27.1,20.9v0.3c0,11.7,6,18.8,32.3,24.2c25.6,5.2,36.4,14.4,36.4,30.5v0.3c0,17.9-15.3,30.2-36.7,30.2
	C1806.4,336.2,1792.8,330.3,1779.5,318.5z"/>
<path fill="#555655" d="M1886,223.9h8.2v51.3h70.9v-51.3h8.2v110.7h-8.2v-51.9h-70.9v51.9h-8.2V223.9z"/>
<path fill="#555655" d="M1999.4,279.5v-0.3c0-30.2,22.3-57.3,55.8-57.3c33.5,0,55.5,26.7,55.5,57v0.3c0,30.2-22.3,57.3-55.8,57.3
	C2021.4,336.5,1999.4,309.8,1999.4,279.5z M2102.2,279.5v-0.3c0-27.4-19.9-49.8-47.3-49.8c-27.4,0-47,22.1-47,49.5v0.3
	c0,27.4,19.9,49.8,47.3,49.8C2082.6,329.1,2102.2,306.9,2102.2,279.5z"/>
<path fill="#555655" d="M2136.9,223.9h40.2c24.4,0,41.1,12.5,41.1,33.9v0.3c0,23.3-20.1,35.3-43.2,35.3h-29.9v41.3h-8.2V223.9z
	 M2175.5,285.7c20.6,0,34.5-10.8,34.5-27.2v-0.3c0-17.6-13.6-26.7-33.5-26.7h-31.3v54.3H2175.5z"/>
<g>
	<g>
		<g>
			<path fill="#222222" d="M1331,108c-1.7-1.2-1.5-2.8,0.4-3.6l5.4-2.2c1.9-0.8,2-2.2,0.1-3.2l-5.2-2.7c-1.9-1-1.9-2.6-0.1-3.6
				l5-2.9c1.8-1,1.7-2.5-0.3-3.2l-5.5-1.9c-2-0.7-2.2-2.3-0.6-3.6l4.6-3.6c1.7-1.3,1.3-2.7-0.7-3.1l-5.7-1.2c-2-0.4-2.5-2-1.1-3.5
				l4.1-4.1c1.5-1.5,1-2.8-1.1-3l-5.8-0.4c-2.1-0.2-2.8-1.6-1.5-3.3l3.5-4.6c1.3-1.7,0.6-2.9-1.5-2.8l-5.8,0.4
				c-2.1,0.1-3-1.3-1.9-3.1l2.8-5.1c1-1.8,0.2-3-1.9-2.6l-5.7,1.1c-2.1,0.4-3.1-0.9-2.3-2.8l2.1-5.4c0.8-1.9-0.2-3-2.2-2.3l-5.5,1.9
				c-2,0.7-3.2-0.4-2.7-2.5l1.4-5.6c0.5-2-0.6-2.9-2.5-2l-5.2,2.6c-1.9,0.9-3.2,0-3-2.1l0.6-5.8c0.2-2.1-1-2.8-2.7-1.6l-4.8,3.3
				c-1.7,1.2-3.2,0.4-3.2-1.7l-0.1-5.8c0-2.1-1.4-2.7-2.9-1.3l-4.3,3.9c-1.6,1.4-3.1,0.8-3.4-1.2l-0.9-5.7c-0.3-2.1-1.7-2.5-3.1-0.9
				l-3.8,4.4c-1.4,1.6-3,1.2-3.6-0.8l-1.7-5.6c-0.6-2-2-2.2-3.2-0.4l-3.2,4.9c-1.1,1.8-2.8,1.6-3.6-0.3l-2.4-5.3
				c-0.9-1.9-2.3-1.9-3.2,0l-2.5,5.3c-0.9,1.9-2.5,2-3.6,0.2l-3.1-4.9c-1.1-1.8-2.5-1.6-3.2,0.4l-1.8,5.5c-0.6,2-2.2,2.3-3.6,0.7
				l-3.7-4.5c-1.3-1.6-2.7-1.2-3.1,0.8l-1,5.7c-0.4,2.1-1.9,2.6-3.4,1.2l-4.3-3.9c-1.5-1.4-2.9-0.9-2.9,1.2l-0.2,5.8
				c-0.1,2.1-1.5,2.8-3.3,1.6l-4.8-3.3c-1.7-1.2-3-0.5-2.8,1.6l0.5,5.8c0.2,2.1-1.2,3-3,2l-5.2-2.7c-1.9-1-3-0.1-2.5,2l1.3,5.7
				c0.5,2-0.8,3.1-2.7,2.4l-5.5-2c-2-0.7-3,0.3-2.2,2.3l2.1,5.4c0.7,2-0.3,3.2-2.4,2.8l-5.7-1.2c-2-0.4-2.9,0.7-1.9,2.5l2.8,5.1
				c1,1.8,0.1,3.2-2,3.1l-5.8-0.4c-2.1-0.2-2.8,1.1-1.6,2.8l3.4,4.7c1.2,1.7,0.5,3.2-1.6,3.3l-5.8,0.3c-2.1,0.1-2.6,1.5-1.2,3l4,4.2
				c1.4,1.5,0.9,3.1-1.1,3.5l-5.7,1.1c-2.1,0.4-2.4,1.8-0.8,3.1l4.5,3.6c1.6,1.3,1.3,2.9-0.6,3.6l-5.5,1.9c-2,0.7-2.1,2.1-0.3,3.2
				l5,3c1.8,1.1,1.7,2.7-0.2,3.6l-5.2,2.6c-1.9,0.9-1.8,2.4,0.1,3.2l5.3,2.3c1.9,0.8,2.1,2.5,0.3,3.6l-4.8,3.2
				c-1.7,1.2-1.5,2.6,0.5,3.1l5.6,1.6c2,0.6,2.4,2.2,0.8,3.5l-4.4,3.9c-1.6,1.4-1.2,2.8,0.9,3l5.8,0.8c2.1,0.3,2.6,1.8,1.3,3.4
				l-3.8,4.4c-1.4,1.6-0.8,2.9,1.3,2.9l5.8,0c2.1,0,2.9,1.5,1.7,3.2l-3.2,4.9c-1.1,1.8-0.4,3,1.7,2.7l5.8-0.7c2.1-0.3,3,1.1,2.1,2.9
				l-2.5,5.3c-0.9,1.9,0,3,2,2.4l5.6-1.5c2-0.5,3.1,0.6,2.5,2.6l-1.8,5.5c-0.6,2,0.4,3,2.3,2.2l5.4-2.2c1.9-0.8,3.2,0.2,2.8,2.3
				l-1,5.7c-0.4,2.1,0.8,2.9,2.6,1.8l5-2.9c1.8-1.1,3.2-0.2,3.1,1.9l-0.3,5.8c-0.1,2.1,1.2,2.7,2.8,1.5l4.6-3.6
				c1.6-1.3,3.2-0.6,3.3,1.4l0.5,5.8c0.2,2.1,1.5,2.6,3,1.1l4.1-4.2c1.5-1.5,3-1,3.5,1l1.3,5.7c0.5,2,1.9,2.3,3.1,0.7l3.5-4.7
				c1.2-1.7,2.9-1.4,3.6,0.5l2,5.4c0.7,2,2.2,2.1,3.2,0.2l2.8-5.1c1-1.8,2.7-1.8,3.6,0l2.7,5.1c1,1.8,2.4,1.8,3.2-0.2l2.1-5.4
				c0.8-1.9,2.4-2.2,3.6-0.5l3.4,4.7c1.2,1.7,2.6,1.4,3.1-0.6l1.4-5.6c0.5-2,2.1-2.5,3.5-0.9l4,4.2c1.4,1.5,2.8,1.1,3-1l0.6-5.8
				c0.2-2.1,1.7-2.7,3.4-1.4l4.5,3.6c1.6,1.3,2.9,0.7,2.9-1.4l-0.2-5.8c-0.1-2.1,1.4-2.9,3.1-1.8l5,3c1.8,1.1,3,0.3,2.6-1.8
				l-0.9-5.7c-0.3-2.1,1-3.1,2.9-2.2l5.3,2.3c1.9,0.8,3-0.1,2.4-2.1l-1.7-5.6c-0.6-2,0.5-3.2,2.6-2.6l5.6,1.6c2,0.6,2.9-0.5,2.1-2.4
				l-2.4-5.3c-0.9-1.9,0.1-3.2,2.2-2.9l5.8,0.8c2.1,0.3,2.8-0.9,1.7-2.7l-3.1-4.9c-1.1-1.8-0.3-3.2,1.8-3.2l5.8,0.1
				c2.1,0,2.7-1.3,1.4-2.9l-3.7-4.5c-1.3-1.6-0.7-3.1,1.3-3.4l5.8-0.7c2.1-0.3,2.5-1.6,1-3l-4.3-3.9c-1.5-1.4-1.2-3,0.9-3.5l5.6-1.5
				c2-0.5,2.3-1.9,0.6-3.1L1331,108z M1244.2,165.6c-38.1,0-69-30.9-69-69s30.9-69,69-69s69,30.9,69,69S1282.3,165.6,1244.2,165.6z"
				/>
		</g>
	</g>
</g>
<g>
	<g>
		<g>
			<path fill="#222222" d="M1881.5,108c-1.7-1.2-1.5-2.8,0.4-3.6l5.4-2.2c1.9-0.8,2-2.2,0.1-3.2l-5.2-2.7c-1.9-1-1.9-2.6-0.1-3.6
				l5-2.9c1.8-1,1.7-2.5-0.3-3.2l-5.5-1.9c-2-0.7-2.2-2.3-0.6-3.6l4.6-3.6c1.7-1.3,1.3-2.7-0.7-3.1l-5.7-1.2c-2-0.4-2.5-2-1.1-3.5
				l4.1-4.1c1.5-1.5,1-2.8-1.1-3l-5.8-0.4c-2.1-0.2-2.8-1.6-1.5-3.3l3.5-4.6c1.3-1.7,0.6-2.9-1.5-2.8l-5.8,0.4
				c-2.1,0.1-3-1.3-1.9-3.1l2.8-5.1c1-1.8,0.2-3-1.9-2.6l-5.7,1.1c-2.1,0.4-3.1-0.9-2.3-2.8l2.1-5.4c0.8-1.9-0.2-3-2.2-2.3l-5.5,1.9
				c-2,0.7-3.2-0.4-2.7-2.5l1.4-5.6c0.5-2-0.6-2.9-2.5-2l-5.2,2.6c-1.9,0.9-3.2,0-3-2.1l0.6-5.8c0.2-2.1-1-2.8-2.7-1.6l-4.8,3.3
				c-1.7,1.2-3.2,0.4-3.2-1.7l-0.1-5.8c0-2.1-1.4-2.7-2.9-1.3l-4.3,3.9c-1.6,1.4-3.1,0.8-3.4-1.2l-0.9-5.7c-0.3-2.1-1.7-2.5-3.1-0.9
				l-3.8,4.4c-1.4,1.6-3,1.2-3.6-0.8l-1.7-5.6c-0.6-2-2-2.2-3.2-0.4l-3.2,4.9c-1.1,1.8-2.8,1.6-3.6-0.3L1797,4
				c-0.9-1.9-2.3-1.9-3.2,0l-2.5,5.3c-0.9,1.9-2.5,2-3.6,0.2l-3.1-4.9c-1.1-1.8-2.5-1.6-3.2,0.4l-1.8,5.5c-0.6,2-2.2,2.3-3.6,0.7
				l-3.7-4.5c-1.3-1.6-2.7-1.2-3.1,0.8l-1,5.7c-0.4,2.1-1.9,2.6-3.4,1.2l-4.3-3.9c-1.5-1.4-2.9-0.9-2.9,1.2l-0.2,5.8
				c-0.1,2.1-1.5,2.8-3.3,1.6l-4.8-3.3c-1.7-1.2-3-0.5-2.8,1.6l0.5,5.8c0.2,2.1-1.2,3-3,2l-5.2-2.7c-1.9-1-3-0.1-2.5,2l1.3,5.7
				c0.5,2-0.8,3.1-2.7,2.4l-5.5-2c-2-0.7-3,0.3-2.2,2.3l2.1,5.4c0.7,2-0.3,3.2-2.4,2.8l-5.7-1.2c-2-0.4-2.9,0.7-1.9,2.5l2.8,5.1
				c1,1.8,0.1,3.2-2,3.1l-5.8-0.4c-2.1-0.2-2.8,1.1-1.6,2.8l3.4,4.7c1.2,1.7,0.5,3.2-1.6,3.3l-5.8,0.3c-2.1,0.1-2.6,1.5-1.2,3l4,4.2
				c1.4,1.5,0.9,3.1-1.1,3.5L1705,73c-2.1,0.4-2.4,1.8-0.8,3.1l4.5,3.6c1.6,1.3,1.3,2.9-0.6,3.6l-5.5,1.9c-2,0.7-2.1,2.1-0.3,3.2
				l5,3c1.8,1.1,1.7,2.7-0.2,3.6l-5.2,2.6c-1.9,0.9-1.8,2.4,0.1,3.2l5.3,2.3c1.9,0.8,2.1,2.5,0.3,3.6l-4.8,3.2
				c-1.7,1.2-1.5,2.6,0.5,3.1l5.6,1.6c2,0.6,2.4,2.2,0.8,3.5l-4.4,3.9c-1.6,1.4-1.2,2.8,0.9,3l5.8,0.8c2.1,0.3,2.6,1.8,1.3,3.4
				l-3.8,4.4c-1.4,1.6-0.8,2.9,1.3,2.9l5.8,0c2.1,0,2.9,1.5,1.7,3.2l-3.2,4.9c-1.1,1.8-0.4,3,1.7,2.7l5.8-0.7c2.1-0.3,3,1.1,2.1,2.9
				l-2.5,5.3c-0.9,1.9,0,3,2,2.4l5.6-1.5c2-0.5,3.1,0.6,2.5,2.6l-1.8,5.5c-0.6,2,0.4,3,2.3,2.2l5.4-2.2c1.9-0.8,3.2,0.2,2.8,2.3
				l-1,5.7c-0.4,2.1,0.8,2.9,2.6,1.8l5-2.9c1.8-1.1,3.2-0.2,3.1,1.9l-0.3,5.8c-0.1,2.1,1.2,2.7,2.8,1.5l4.6-3.6
				c1.6-1.3,3.2-0.6,3.3,1.4l0.5,5.8c0.2,2.1,1.5,2.6,3,1.1l4.1-4.2c1.5-1.5,3-1,3.5,1l1.3,5.7c0.5,2,1.9,2.3,3.1,0.7l3.5-4.7
				c1.2-1.7,2.9-1.4,3.6,0.5l2,5.4c0.7,2,2.2,2.1,3.2,0.2l2.8-5.1c1-1.8,2.7-1.8,3.6,0l2.7,5.1c1,1.8,2.4,1.8,3.2-0.2l2.1-5.4
				c0.8-1.9,2.4-2.2,3.6-0.5l3.4,4.7c1.2,1.7,2.6,1.4,3.1-0.6l1.4-5.6c0.5-2,2.1-2.5,3.5-0.9l4,4.2c1.4,1.5,2.8,1.1,3-1l0.6-5.8
				c0.2-2.1,1.7-2.7,3.4-1.4l4.5,3.6c1.6,1.3,2.9,0.7,2.9-1.4l-0.2-5.8c-0.1-2.1,1.4-2.9,3.1-1.8l5,3c1.8,1.1,3,0.3,2.6-1.8
				l-0.9-5.7c-0.3-2.1,1-3.1,2.9-2.2l5.3,2.3c1.9,0.8,3-0.1,2.4-2.1l-1.7-5.6c-0.6-2,0.5-3.2,2.6-2.6l5.6,1.6c2,0.6,2.9-0.5,2.1-2.4
				l-2.4-5.3c-0.9-1.9,0.1-3.2,2.2-2.9l5.8,0.8c2.1,0.3,2.8-0.9,1.7-2.7l-3.1-4.9c-1.1-1.8-0.3-3.2,1.8-3.2l5.8,0.1
				c2.1,0,2.7-1.3,1.4-2.9l-3.7-4.5c-1.3-1.6-0.7-3.1,1.3-3.4l5.8-0.7c2.1-0.3,2.5-1.6,1-3l-4.3-3.9c-1.5-1.4-1.2-3,0.9-3.5l5.6-1.5
				c2-0.5,2.3-1.9,0.6-3.1L1881.5,108z M1794.6,165.6c-38.1,0-69-30.9-69-69s30.9-69,69-69c38.1,0,69,30.9,69,69
				S1832.7,165.6,1794.6,165.6z"/>
		</g>
	</g>
</g>
<g>
	<g>
		<g>
			<path fill="#222222" d="M2218.6,108c-1.7-1.2-1.5-2.8,0.4-3.6l5.4-2.2c1.9-0.8,2-2.2,0.1-3.2l-5.2-2.7c-1.9-1-1.9-2.6-0.1-3.6
				l5-2.9c1.8-1,1.7-2.5-0.3-3.2l-5.5-1.9c-2-0.7-2.2-2.3-0.6-3.6l4.6-3.6c1.7-1.3,1.3-2.7-0.7-3.1l-5.7-1.2c-2-0.4-2.5-2-1.1-3.5
				l4.1-4.1c1.5-1.5,1-2.8-1.1-3l-5.8-0.4c-2.1-0.2-2.8-1.6-1.5-3.3l3.5-4.6c1.3-1.7,0.6-2.9-1.5-2.8l-5.8,0.4
				c-2.1,0.1-3-1.3-1.9-3.1l2.8-5.1c1-1.8,0.2-3-1.9-2.6l-5.7,1.1c-2.1,0.4-3.1-0.9-2.3-2.8l2.1-5.4c0.8-1.9-0.2-3-2.2-2.3l-5.5,1.9
				c-2,0.7-3.2-0.4-2.7-2.5l1.4-5.6c0.5-2-0.6-2.9-2.5-2l-5.2,2.6c-1.9,0.9-3.2,0-3-2.1l0.6-5.8c0.2-2.1-1-2.8-2.7-1.6l-4.8,3.3
				c-1.7,1.2-3.2,0.4-3.2-1.7l-0.1-5.8c0-2.1-1.4-2.7-2.9-1.3l-4.3,3.9c-1.6,1.4-3.1,0.8-3.4-1.2l-0.9-5.7c-0.3-2.1-1.7-2.5-3.1-0.9
				l-3.8,4.4c-1.4,1.6-3,1.2-3.6-0.8l-1.7-5.6c-0.6-2-2-2.2-3.2-0.4l-3.2,4.9c-1.1,1.8-2.8,1.6-3.6-0.3l-2.4-5.3
				c-0.9-1.9-2.3-1.9-3.2,0l-2.5,5.3c-0.9,1.9-2.5,2-3.6,0.2l-3.1-4.9c-1.1-1.8-2.5-1.6-3.2,0.4l-1.8,5.5c-0.6,2-2.2,2.3-3.6,0.7
				l-3.7-4.5c-1.3-1.6-2.7-1.2-3.1,0.8l-1,5.7c-0.4,2.1-1.9,2.6-3.4,1.2l-4.3-3.9c-1.5-1.4-2.9-0.9-2.9,1.2l-0.2,5.8
				c-0.1,2.1-1.5,2.8-3.3,1.6l-4.8-3.3c-1.7-1.2-3-0.5-2.8,1.6l0.5,5.8c0.2,2.1-1.2,3-3,2l-5.2-2.7c-1.9-1-3-0.1-2.5,2l1.3,5.7
				c0.5,2-0.8,3.1-2.7,2.4l-5.5-2c-2-0.7-3,0.3-2.2,2.3l2.1,5.4c0.7,2-0.3,3.2-2.4,2.8l-5.7-1.2c-2-0.4-2.9,0.7-1.9,2.5l2.8,5.1
				c1,1.8,0.1,3.2-2,3.1l-5.8-0.4c-2.1-0.2-2.8,1.1-1.6,2.8l3.4,4.7c1.2,1.7,0.5,3.2-1.6,3.3l-5.8,0.3c-2.1,0.1-2.6,1.5-1.2,3l4,4.2
				c1.4,1.5,0.9,3.1-1.1,3.5l-5.7,1.1c-2.1,0.4-2.4,1.8-0.8,3.1l4.5,3.6c1.6,1.3,1.3,2.9-0.6,3.6l-5.5,1.9c-2,0.7-2.1,2.1-0.3,3.2
				l5,3c1.8,1.1,1.7,2.7-0.2,3.6l-5.2,2.6c-1.9,0.9-1.8,2.4,0.1,3.2l5.3,2.3c1.9,0.8,2.1,2.5,0.3,3.6l-4.8,3.2
				c-1.7,1.2-1.5,2.6,0.5,3.1l5.6,1.6c2,0.6,2.4,2.2,0.8,3.5l-4.4,3.9c-1.6,1.4-1.2,2.8,0.9,3l5.8,0.8c2.1,0.3,2.6,1.8,1.3,3.4
				l-3.8,4.4c-1.4,1.6-0.8,2.9,1.3,2.9l5.8,0c2.1,0,2.9,1.5,1.7,3.2l-3.2,4.9c-1.1,1.8-0.4,3,1.7,2.7l5.8-0.7c2.1-0.3,3,1.1,2.1,2.9
				l-2.5,5.3c-0.9,1.9,0,3,2,2.4l5.6-1.5c2-0.5,3.1,0.6,2.5,2.6l-1.8,5.5c-0.6,2,0.4,3,2.3,2.2l5.4-2.2c1.9-0.8,3.2,0.2,2.8,2.3
				l-1,5.7c-0.4,2.1,0.8,2.9,2.6,1.8l5-2.9c1.8-1.1,3.2-0.2,3.1,1.9l-0.3,5.8c-0.1,2.1,1.2,2.7,2.8,1.5l4.6-3.6
				c1.6-1.3,3.2-0.6,3.3,1.4l0.5,5.8c0.2,2.1,1.5,2.6,3,1.1l4.1-4.2c1.5-1.5,3-1,3.5,1l1.3,5.7c0.5,2,1.9,2.3,3.1,0.7l3.5-4.7
				c1.2-1.7,2.9-1.4,3.6,0.5l2,5.4c0.7,2,2.2,2.1,3.2,0.2l2.8-5.1c1-1.8,2.7-1.8,3.6,0l2.7,5.1c1,1.8,2.4,1.8,3.2-0.2l2.1-5.4
				c0.8-1.9,2.4-2.2,3.6-0.5l3.4,4.7c1.2,1.7,2.6,1.4,3.1-0.6l1.4-5.6c0.5-2,2.1-2.5,3.5-0.9l4,4.2c1.4,1.5,2.8,1.1,3-1l0.6-5.8
				c0.2-2.1,1.7-2.7,3.4-1.4l4.5,3.6c1.6,1.3,2.9,0.7,2.9-1.4l-0.2-5.8c-0.1-2.1,1.4-2.9,3.1-1.8l5,3c1.8,1.1,3,0.3,2.6-1.8
				l-0.9-5.7c-0.3-2.1,1-3.1,2.9-2.2l5.3,2.3c1.9,0.8,3-0.1,2.4-2.1l-1.7-5.6c-0.6-2,0.5-3.2,2.6-2.6l5.6,1.6c2,0.6,2.9-0.5,2.1-2.4
				l-2.4-5.3c-0.9-1.9,0.1-3.2,2.2-2.9l5.8,0.8c2.1,0.3,2.8-0.9,1.7-2.7l-3.1-4.9c-1.1-1.8-0.3-3.2,1.8-3.2l5.8,0.1
				c2.1,0,2.7-1.3,1.4-2.9l-3.7-4.5c-1.3-1.6-0.7-3.1,1.3-3.4l5.8-0.7c2.1-0.3,2.5-1.6,1-3l-4.3-3.9c-1.5-1.4-1.1-3,0.9-3.5l5.6-1.5
				c2-0.5,2.3-1.9,0.6-3.1L2218.6,108z M2131.7,165.6c-38.1,0-69-30.9-69-69s30.9-69,69-69c38.1,0,69,30.9,69,69
				S2169.8,165.6,2131.7,165.6z"/>
		</g>
	</g>
</g>
<g>
	<g>
		<circle fill="none" stroke="#000000" stroke-width="21.7645" stroke-miterlimit="10" cx="172.9" cy="174.4" r="162"/>
		<g>
			<line fill="none" stroke="#000000" stroke-width="4.652" stroke-miterlimit="10" x1="226.9" y1="29.6" x2="118.9" y2="319.2"/>
			<line fill="none" stroke="#000000" stroke-width="4.652" stroke-miterlimit="10" x1="28.1" y1="120.4" x2="317.7" y2="228.4"/>
			<line fill="none" stroke="#000000" stroke-width="4.652" stroke-miterlimit="10" x1="108.7" y1="33.8" x2="237.1" y2="315"/>
			<line fill="none" stroke="#000000" stroke-width="4.652" stroke-miterlimit="10" x1="32.3" y1="238.6" x2="313.5" y2="110.2"/>
			<line fill="none" stroke="#000000" stroke-width="4.652" stroke-miterlimit="10" x1="167.4" y1="19.9" x2="178.4" y2="328.8"/>
			<line fill="none" stroke="#000000" stroke-width="4.652" stroke-miterlimit="10" x1="18.4" y1="179.9" x2="327.3" y2="168.9"/>
			<line fill="none" stroke="#000000" stroke-width="4.652" stroke-miterlimit="10" x1="59.8" y1="69.1" x2="286" y2="279.7"/>
			<line fill="none" stroke="#000000" stroke-width="4.652" stroke-miterlimit="10" x1="67.6" y1="287.5" x2="278.2" y2="61.3"/>
		</g>
		<circle fill="none" stroke="#414042" stroke-width="18.6078" stroke-miterlimit="10" cx="172.9" cy="174.4" r="154.6"/>
		<circle cx="172.9" cy="174.4" r="26"/>
	</g>
	<circle fill="none" cx="172.9" cy="174.4" r="146.6"/>
	<text transform="matrix(0.1693 -0.9856 0.9856 0.1693 27.116 156.7961)"><tspan x="0" y="0" fill="#FFFFFF" font-family="'Gotham-Light'" font-size="21.5624">E</tspan><tspan x="13.9" y="0" fill="#FFFFFF" font-family="'Gotham-Light'" font-size="21.5624" rotate="5.2">L</tspan><tspan x="26.7" y="1.3" fill="#FFFFFF" font-family="'Gotham-Light'" font-size="21.5624" rotate="8.9"> </tspan><tspan x="32.6" y="2.2" fill="#FFFFFF" font-family="'Gotham-Light'" font-size="21.5624" rotate="11.8">F</tspan><tspan x="45.8" y="5" fill="#FFFFFF" font-family="'Gotham-Light'" font-size="21.5624" rotate="18.2">R</tspan><tspan x="60.1" y="9.5" fill="#FFFFFF" font-family="'Gotham-Light'" font-size="21.5624" rotate="24.6">O</tspan><tspan x="76.2" y="16.9" fill="#FFFFFF" font-family="'Gotham-Light'" font-size="21.5624" rotate="31.2">N</tspan><tspan x="90.2" y="25.3" fill="#FFFFFF" font-family="'Gotham-Light'" font-size="21.5624" rotate="37.6">D</tspan><tspan x="103.1" y="35.2" fill="#FFFFFF" font-family="'Gotham-Light'" font-size="21.5624" rotate="44.3">O</tspan><tspan x="115.7" y="47.6" fill="#FFFFFF" font-family="'Gotham-Light'" font-size="21.5624" rotate="50.3">S</tspan><tspan x="124.2" y="57.6" fill="#FFFFFF" font-family="'Gotham-Light'" font-size="21.5624" rotate="56.3">O</tspan></text>
</g>
</svg>
