<svg version="1.1" id="Layer_1" xmlns="http://www.w3.org/2000/svg" xmlns:xlink="http://www.w3.org/1999/xlink" x="0px" y="0px"
	 viewBox="0 0 2829.2 531.5" enable-background="new 0 0 2829.2 531.5" xml:space="preserve">
<g>
	<path d="M0,16h211.1v61.5H72v40.1h126V175H72v41.6h141v61.9H0V16z"/>
	<path d="M250.5,16h72.8v198.8h127.1v63.8H250.5V16z"/>
	<path d="M585.7,16h210v63.8H658.5v44.6h124.1v60.4H658.5v93.8h-72.8V16z"/>
	<path d="M829.1,16h124.1c40.1,0,67.9,10.5,85.5,28.1c15.4,15.4,23.3,35.3,23.3,61.1v0.8c0,40.5-21.4,67.1-54,81l62.6,91.5H987
		L934.1,199h-32.3v79.5h-72.8V16z M950.2,142c24.4,0,39-12,39-31.1v-0.8c0-21-15.4-31.5-39.4-31.5h-48V142H950.2z"/>
	<path d="M1410.4,16h67.9l108,138.8V16h72v262.5h-63.4l-112.5-144v144h-72V16z"/>
	<path d="M1704.7,16h101.6c93.4,0,147.8,54,147.8,129.8v0.8c0,75.8-55.1,132-149.3,132h-100.1V16z M1777.5,80.2V214h29.6
		c43.9,0,72.8-24,72.8-66.4v-0.8c0-42-28.9-66.7-72.8-66.7H1777.5z"/>
	<path d="M2281.9,239.5l40.5-48.4c26.3,20.6,54.8,31.5,85.1,31.5c19.9,0,30.4-6.8,30.4-18v-0.8c0-11.3-8.6-16.9-44.6-25.5
		c-55.9-12.8-99-28.5-99-82.1v-0.8c0-48.8,38.6-84,101.6-84c44.6,0,79.5,12,108,34.9l-36.4,51.4c-24-17.3-50.3-25.9-73.5-25.9
		c-17.6,0-26.3,7.1-26.3,16.9v0.8c0,12,9,17.3,45.8,25.5c60,13.1,97.5,32.6,97.5,81.7v0.8c0,53.6-42.4,85.5-106.1,85.5
		C2358.4,283,2314.5,268.4,2281.9,239.5z"/>
	<path d="M0.9,353.5h72.3c19.8,0,35.8,5.8,45.5,15.5c7.3,7.3,11.3,16.5,11.3,27.5v0.5c0,23.8-15.5,35.8-29.8,41.5
		c21,5.5,39.5,17.5,39.5,41.8v0.5c0,29.3-25,47.7-62.8,47.7h-76V353.5z M116.7,397.8c0-19.3-15.8-32.3-43.8-32.3h-59v68.8h57.8
		c26.3,0,45-12.8,45-36V397.8z M73.2,446.3H13.9v70.2h63.5c30,0,49-13.7,49-35.7v-0.5C126.4,458.8,107.7,446.3,73.2,446.3z"/>
	<path d="M185.7,353.5h13v175h-13V353.5z"/>
	<path d="M247.2,441.5V441c0-49.5,37-90.5,87.5-90.5c31.3,0,50,11.5,68,28l-9.3,9.5c-15.3-14.8-32.8-25.8-59-25.8
		c-42,0-73.8,34.3-73.8,78.3v0.5c0,44.3,32.3,78.7,74,78.7c25.3,0,42.5-9.7,60.3-27.2l8.8,8.5c-18.5,18.2-38.5,30.5-69.5,30.5
		C284.2,531.5,247.2,491.8,247.2,441.5z"/>
	<path d="M496.4,459.3l-75-105.8h16.3l65.5,94l65.8-94h15.5l-75,105.5v69.5h-13V459.3z"/>
	<path d="M598.2,441.5V441c0-49.5,37-90.5,87.5-90.5c31.3,0,50,11.5,68,28l-9.3,9.5c-15.3-14.8-32.8-25.8-59-25.8
		c-42,0-73.8,34.3-73.8,78.3v0.5c0,44.3,32.3,78.7,74,78.7c25.3,0,42.5-9.7,60.3-27.2l8.8,8.5c-18.5,18.2-38.5,30.5-69.5,30.5
		C635.2,531.5,598.2,491.8,598.2,441.5z"/>
	<path d="M792.9,353.5h13v163h102.8v12H792.9V353.5z"/>
	<path d="M950.2,353.5h124.5v12H963.2v68.8h100.3v12H963.2v70.2h112.8v12H950.2V353.5z"/>
	<path d="M1261.7,353.5h14.5l55,155.8l51.3-156.3h10l51.3,156.3l55-155.8h13.5l-63.5,176.2h-10.5l-51.3-152l-51.3,152h-10.5
		L1261.7,353.5z"/>
	<path d="M1536.7,441.5V441c0-47.8,35.3-90.5,88.3-90.5s87.8,42.3,87.8,90v0.5c0,47.8-35.3,90.5-88.3,90.5
		S1536.7,489.3,1536.7,441.5z M1699.2,441.5V441c0-43.3-31.5-78.8-74.8-78.8s-74.3,35-74.3,78.3v0.5c0,43.3,31.5,78.7,74.8,78.7
		S1699.2,484.8,1699.2,441.5z"/>
	<path d="M1759.4,353.5h73.5c21.5,0,38.8,6.8,49.3,17.3c8.3,8.3,13.3,20,13.3,32.5v0.5c0,29.3-21.8,46-51.3,50l57.8,74.7h-16.5
		l-55.8-72.5h-57.3v72.5h-13V353.5z M1831.4,444.3c29.3,0,51-14.8,51-40v-0.5c0-23.5-18.5-38.3-50.3-38.3h-59.8v78.8H1831.4z"/>
	<path d="M1942.7,353.5h13v115l111.5-115h17.8l-76.5,77.3l79.8,97.7h-17l-72-88.5l-43.5,44v44.5h-13V353.5z"/>
	<path d="M2110.2,503l8.5-9.8c19.3,17.8,37,26,62.8,26c26.3,0,44.3-14.7,44.3-34.7V484c0-18.5-9.8-29.3-49.5-37.3
		c-42-8.5-59-22.8-59-49.3V397c0-26,23.8-46,56.3-46c25.5,0,42.3,7,60,21.3l-8.3,10.3c-16.5-14.3-33-19.8-52.3-19.8
		c-25.8,0-42.8,14.8-42.8,33v0.5c0,18.5,9.5,29.8,51,38.3c40.5,8.3,57.5,22.8,57.5,48.3v0.5c0,28.3-24.3,47.7-58,47.7
		C2152.7,531,2131.2,521.8,2110.2,503z"/>
	<path d="M2283.9,353.5h13v81h112v-81h13v175h-13v-82h-112v82h-13V353.5z"/>
	<path d="M2468.7,441.5V441c0-47.8,35.3-90.5,88.3-90.5s87.8,42.3,87.8,90v0.5c0,47.8-35.3,90.5-88.3,90.5
		S2468.7,489.3,2468.7,441.5z M2631.2,441.5V441c0-43.3-31.5-78.8-74.8-78.8s-74.3,35-74.3,78.3v0.5c0,43.3,31.5,78.7,74.8,78.7
		S2631.2,484.8,2631.2,441.5z"/>
	<path d="M2691.4,353.5h63.5c38.5,0,65,19.8,65,53.5v0.5c0,36.8-31.8,55.8-68.3,55.8h-47.3v65.2h-13V353.5z M2752.4,451.3
		c32.5,0,54.5-17,54.5-43v-0.5c0-27.8-21.5-42.3-53-42.3h-49.5v85.8H2752.4z"/>
	<path d="M2191.6,149.9v-0.8c0-38.2-27-70.9-67.1-70.9s-66.8,32.3-66.8,70.1v0.8c0,37.9,27.4,70.9,67.5,70.9
		C2165,220,2191.6,187.8,2191.6,149.9z M2116.6,8.6c4.5-8.8,11.8-8.8,16.2,0l5.5,10.9c4.5,8.8,14.1,10.7,21.5,4.1l9.4-8.4
		c7.4-6.6,14.1-3.9,15,5.9l1.1,11.9c0.9,9.9,9.2,15,18.4,11.5l12.2-4.7c9.2-3.5,14.5,1.3,11.7,10.8l-3.4,11.5
		c-2.8,9.5,2.9,17.2,12.8,17.2l13.3-0.1c9.9-0.1,13,6.3,6.9,14.1l-7.7,9.8c-6.1,7.8-3.5,17,5.8,20.4l12.3,4.5
		c9.3,3.4,9.9,10.4,1.4,15.5l-11.1,6.6c-8.5,5.1-9.4,14.5-1.9,21.1l9.5,8.3c7.4,6.5,5.6,13.3-4.2,15l-13,2.3
		c-9.7,1.7-14,10.3-9.4,19.1l5.6,10.8c4.6,8.8,0.3,14.5-9.4,12.7l-13-2.4c-9.7-1.8-16.9,4.7-15.9,14.6l1.2,11.8
		c1,9.8-5.1,13.7-13.6,8.5l-11-6.7c-8.5-5.2-17.6-1.6-20.3,7.9l-3.3,11.5c-2.7,9.5-9.9,10.9-15.9,3l-7.5-9.8c-6-7.9-15.9-7.9-21.9,0
		l-7.5,9.8c-6,7.9-13.2,6.5-15.9-3l-3.3-11.5c-2.7-9.5-11.9-13.1-20.3-7.9l-11,6.7c-8.5,5.2-14.6,1.3-13.6-8.5l1.2-11.8
		c1-9.8-6.2-16.4-15.9-14.6l-13,2.4c-9.7,1.8-14-3.9-9.4-12.7l5.6-10.8c4.6-8.8,0.3-17.4-9.4-19.1l-13-2.3c-9.7-1.7-11.6-8.5-4.2-15
		l9.5-8.3c7.4-6.5,6.6-16-1.9-21.1l-11.1-6.6c-8.5-5.1-7.9-12,1.4-15.5l12.3-4.5c9.3-3.4,11.9-12.6,5.8-20.4l-7.7-9.8
		c-6.1-7.8-3-14.1,6.9-14.1l13.3,0.1c9.9,0.1,15.7-7.7,12.8-17.2l-3.4-11.5c-2.8-9.5,2.4-14.4,11.7-10.8l12.2,4.7
		c9.2,3.5,17.5-1.6,18.4-11.5l1.1-11.9c0.9-9.9,7.6-12.5,15-5.9l9.4,8.4c7.4,6.6,17.1,4.8,21.5-4.1L2116.6,8.6z"/>
	<path d="M2745.9,149.9v-0.8c0-38.3-27-70.9-67.1-70.9s-66.8,32.3-66.8,70.1v0.8c0,37.9,27.4,70.9,67.5,70.9
		C2719.3,220,2745.9,187.8,2745.9,149.9z M2670.9,8.6c4.5-8.8,11.8-8.8,16.2,0l5.5,10.9c4.5,8.8,14.1,10.7,21.5,4.1l9.4-8.4
		c7.4-6.6,14.1-3.9,15,5.9l1.1,11.9c0.9,9.9,9.2,15,18.4,11.5l12.2-4.7c9.2-3.5,14.5,1.3,11.7,10.8l-3.4,11.5
		c-2.8,9.5,2.9,17.2,12.8,17.2l13.3-0.1c9.9-0.1,13,6.3,6.9,14.1l-7.7,9.8c-6.1,7.8-3.5,17,5.8,20.4l12.3,4.5
		c9.3,3.4,9.9,10.4,1.4,15.5l-11.1,6.6c-8.5,5.1-9.4,14.5-1.9,21.1l9.5,8.3c7.4,6.5,5.6,13.3-4.2,15l-13,2.3
		c-9.7,1.7-14,10.3-9.4,19.1l5.6,10.8c4.6,8.8,0.3,14.5-9.4,12.7l-13-2.4c-9.7-1.8-16.9,4.7-15.9,14.6l1.2,11.8
		c1,9.8-5.1,13.7-13.6,8.5l-11-6.7c-8.5-5.2-17.6-1.6-20.3,7.9l-3.3,11.5c-2.7,9.5-9.9,10.9-15.9,3l-7.5-9.8c-6-7.9-15.9-7.9-21.9,0
		l-7.5,9.8c-6,7.9-13.2,6.5-15.9-3l-3.3-11.5c-2.7-9.5-11.9-13.1-20.3-7.9l-11,6.7c-8.5,5.2-14.6,1.3-13.6-8.5l1.2-11.8
		c1-9.8-6.2-16.4-15.9-14.6l-13,2.4c-9.7,1.8-14-3.9-9.4-12.7l5.6-10.8c4.6-8.8,0.3-17.4-9.4-19.1l-13-2.3c-9.7-1.7-11.6-8.5-4.2-15
		l9.5-8.3c7.4-6.5,6.6-16-1.9-21.1l-11.1-6.6c-8.5-5.1-7.9-12,1.4-15.5l12.3-4.5c9.3-3.4,11.9-12.6,5.8-20.4l-7.7-9.8
		c-6.1-7.8-3-14.1,6.9-14.1l13.3,0.1c9.9,0.1,15.7-7.7,12.8-17.2l-3.4-11.5c-2.8-9.5,2.4-14.4,11.7-10.8l12.2,4.7
		c9.2,3.5,17.5-1.6,18.4-11.5l1.1-11.9c0.9-9.9,7.6-12.5,15-5.9l9.4,8.4c7.4,6.6,17.1,4.8,21.5-4.1L2670.9,8.6z"/>
	<path d="M1299.4,147.9v-0.8c0-38.3-27-70.9-67.1-70.9s-66.8,32.3-66.8,70.1v0.8c0,37.9,27.4,70.9,67.5,70.9
		C1272.8,218,1299.4,185.8,1299.4,147.9z M1224.4,6.6c4.5-8.8,11.8-8.8,16.2,0l5.5,10.9c4.5,8.8,14.1,10.7,21.5,4.1l9.4-8.4
		c7.4-6.6,14.1-3.9,15,5.9l1.1,11.9c0.9,9.9,9.2,15,18.4,11.5l12.2-4.7c9.2-3.5,14.5,1.3,11.7,10.8l-3.4,11.5
		c-2.8,9.5,2.9,17.2,12.8,17.2l13.3-0.1c9.9-0.1,13,6.3,6.9,14.1l-7.7,9.8c-6.1,7.8-3.5,17,5.8,20.4l12.3,4.5
		c9.3,3.4,9.9,10.4,1.4,15.5l-11.1,6.6c-8.5,5.1-9.4,14.5-1.9,21.1l9.5,8.3c7.4,6.5,5.6,13.3-4.2,15l-13,2.3
		c-9.7,1.7-14,10.3-9.4,19.1l5.6,10.8c4.6,8.8,0.3,14.5-9.4,12.7l-13-2.4c-9.7-1.8-16.9,4.7-15.9,14.6l1.2,11.8
		c1,9.8-5.1,13.7-13.6,8.5l-11-6.7c-8.5-5.2-17.6-1.6-20.3,7.9l-3.3,11.5c-2.7,9.5-9.9,10.9-15.9,3l-7.5-9.8c-6-7.9-15.9-7.9-21.9,0
		l-7.5,9.8c-6,7.9-13.2,6.5-15.9-3l-3.3-11.5c-2.7-9.5-11.9-13.1-20.3-7.9l-11,6.7c-8.5,5.2-14.6,1.3-13.6-8.5l1.2-11.8
		c1-9.8-6.2-16.4-15.9-14.6l-13,2.4c-9.7,1.8-14-3.9-9.4-12.7l5.6-10.8c4.6-8.8,0.3-17.4-9.4-19.1l-13-2.3c-9.7-1.7-11.6-8.5-4.2-15
		l9.5-8.3c7.4-6.5,6.6-16-1.9-21.1l-11.1-6.6c-8.5-5.1-7.9-12,1.4-15.5l12.3-4.5c9.3-3.4,11.9-12.6,5.8-20.4l-7.7-9.8
		c-6.1-7.8-3-14.1,6.9-14.1l13.3,0.1c9.9,0.1,15.7-7.7,12.8-17.2l-3.4-11.5c-2.8-9.5,2.4-14.4,11.7-10.8l12.2,4.7
		c9.2,3.5,17.5-1.6,18.4-11.5l1.1-11.9c0.9-9.9,7.6-12.5,15-5.9l9.4,8.4c7.4,6.6,17.1,4.8,21.5-4.1L1224.4,6.6z"/>
</g>
</svg>
